STARTFONT 2.1
COMMENT
COMMENT Converted from OpenType font "NimbusSans-Regular.otf" by "otf2bdf 3.0".
COMMENT
FONT -FreeType-Nimbus Sans-Medium-R-Normal--8-60-100-100-P-46-ISO10646-1
SIZE 6 100 100
FONTBOUNDINGBOX 11 13 -2 -3
STARTPROPERTIES 19
FOUNDRY "FreeType"
FAMILY_NAME "Nimbus Sans"
WEIGHT_NAME "Medium"
SLANT "R"
SETWIDTH_NAME "Normal"
ADD_STYLE_NAME ""
PIXEL_SIZE 8
POINT_SIZE 60
RESOLUTION_X 100
RESOLUTION_Y 100
SPACING "P"
AVERAGE_WIDTH 46
CHARSET_REGISTRY "ISO10646"
CHARSET_ENCODING "1"
FONT_ASCENT 5
FONT_DESCENT 2
COPYRIGHT "(URW)++,Copyright 2014 by (URW)++ Design & Development"
_OTF_FONTFILE "NimbusSans-Regular.otf"
_OTF_PSNAME "NimbusSans-Regular"
ENDPROPERTIES
CHARS 854
STARTCHAR 0020
ENCODING 32
SWIDTH 240 0
DWIDTH 2 0
BBX 0 0 0 0
BITMAP
ENDCHAR
STARTCHAR 0021
ENCODING 33
SWIDTH 240 0
DWIDTH 2 0
BBX 1 7 1 0
BITMAP
80
80
80
80
80
80
80
ENDCHAR
STARTCHAR 0022
ENCODING 34
SWIDTH 360 0
DWIDTH 3 0
BBX 3 2 0 4
BITMAP
A0
C0
ENDCHAR
STARTCHAR 0023
ENCODING 35
SWIDTH 600 0
DWIDTH 5 0
BBX 5 6 0 0
BITMAP
50
F8
50
F0
60
A0
ENDCHAR
STARTCHAR 0024
ENCODING 36
SWIDTH 600 0
DWIDTH 5 0
BBX 4 7 0 -1
BITMAP
70
A0
60
30
B0
70
20
ENDCHAR
STARTCHAR 0025
ENCODING 37
SWIDTH 840 0
DWIDTH 7 0
BBX 7 6 0 0
BITMAP
68
A8
50
14
2A
26
ENDCHAR
STARTCHAR 0026
ENCODING 38
SWIDTH 720 0
DWIDTH 6 0
BBX 5 6 0 0
BITMAP
70
50
20
E8
90
78
ENDCHAR
STARTCHAR 0027
ENCODING 39
SWIDTH 240 0
DWIDTH 2 0
BBX 1 2 0 4
BITMAP
80
80
ENDCHAR
STARTCHAR 0028
ENCODING 40
SWIDTH 360 0
DWIDTH 3 0
BBX 1 7 1 -1
BITMAP
80
80
80
80
80
80
80
ENDCHAR
STARTCHAR 0029
ENCODING 41
SWIDTH 360 0
DWIDTH 3 0
BBX 2 7 0 -1
BITMAP
80
40
40
40
40
40
40
ENDCHAR
STARTCHAR 002A
ENCODING 42
SWIDTH 360 0
DWIDTH 3 0
BBX 1 2 1 5
BITMAP
80
80
ENDCHAR
STARTCHAR 002B
ENCODING 43
SWIDTH 600 0
DWIDTH 5 0
BBX 4 4 0 0
BITMAP
20
F0
20
20
ENDCHAR
STARTCHAR 002C
ENCODING 44
SWIDTH 240 0
DWIDTH 2 0
BBX 1 2 1 -1
BITMAP
80
80
ENDCHAR
STARTCHAR 002D
ENCODING 45
SWIDTH 360 0
DWIDTH 3 0
BBX 2 1 0 2
BITMAP
C0
ENDCHAR
STARTCHAR 002E
ENCODING 46
SWIDTH 240 0
DWIDTH 2 0
BBX 1 1 1 0
BITMAP
80
ENDCHAR
STARTCHAR 002F
ENCODING 47
SWIDTH 240 0
DWIDTH 2 0
BBX 2 6 0 1
BITMAP
40
40
80
80
80
80
ENDCHAR
STARTCHAR 0030
ENCODING 48
SWIDTH 600 0
DWIDTH 5 0
BBX 4 6 0 0
BITMAP
60
90
90
90
90
70
ENDCHAR
STARTCHAR 0031
ENCODING 49
SWIDTH 600 0
DWIDTH 5 0
BBX 2 6 1 0
BITMAP
40
C0
40
40
40
40
ENDCHAR
STARTCHAR 0032
ENCODING 50
SWIDTH 600 0
DWIDTH 5 0
BBX 4 6 0 0
BITMAP
70
90
10
20
40
F0
ENDCHAR
STARTCHAR 0033
ENCODING 51
SWIDTH 600 0
DWIDTH 5 0
BBX 4 6 0 0
BITMAP
70
90
10
30
90
70
ENDCHAR
STARTCHAR 0034
ENCODING 52
SWIDTH 600 0
DWIDTH 5 0
BBX 4 5 0 1
BITMAP
20
60
A0
F0
20
ENDCHAR
STARTCHAR 0035
ENCODING 53
SWIDTH 600 0
DWIDTH 5 0
BBX 4 6 0 0
BITMAP
70
80
70
10
90
70
ENDCHAR
STARTCHAR 0036
ENCODING 54
SWIDTH 600 0
DWIDTH 5 0
BBX 4 6 0 0
BITMAP
70
90
A0
D0
90
70
ENDCHAR
STARTCHAR 0037
ENCODING 55
SWIDTH 600 0
DWIDTH 5 0
BBX 4 6 0 0
BITMAP
F0
10
20
20
40
40
ENDCHAR
STARTCHAR 0038
ENCODING 56
SWIDTH 600 0
DWIDTH 5 0
BBX 4 6 0 0
BITMAP
70
90
70
90
90
70
ENDCHAR
STARTCHAR 0039
ENCODING 57
SWIDTH 600 0
DWIDTH 5 0
BBX 4 6 0 0
BITMAP
70
90
90
70
90
60
ENDCHAR
STARTCHAR 003A
ENCODING 58
SWIDTH 240 0
DWIDTH 2 0
BBX 1 5 1 0
BITMAP
80
00
00
00
80
ENDCHAR
STARTCHAR 003B
ENCODING 59
SWIDTH 240 0
DWIDTH 2 0
BBX 1 6 1 -1
BITMAP
80
00
00
00
80
80
ENDCHAR
STARTCHAR 003C
ENCODING 60
SWIDTH 600 0
DWIDTH 5 0
BBX 3 4 1 0
BITMAP
20
C0
80
60
ENDCHAR
STARTCHAR 003D
ENCODING 61
SWIDTH 600 0
DWIDTH 5 0
BBX 4 2 0 1
BITMAP
F0
F0
ENDCHAR
STARTCHAR 003E
ENCODING 62
SWIDTH 600 0
DWIDTH 5 0
BBX 4 4 0 0
BITMAP
C0
30
30
C0
ENDCHAR
STARTCHAR 003F
ENCODING 63
SWIDTH 600 0
DWIDTH 5 0
BBX 3 7 1 0
BITMAP
E0
A0
20
40
40
00
40
ENDCHAR
STARTCHAR 0040
ENCODING 64
SWIDTH 960 0
DWIDTH 8 0
BBX 8 8 0 -1
BITMAP
3C
42
9D
A5
A5
AA
54
3C
ENDCHAR
STARTCHAR 0041
ENCODING 65
SWIDTH 720 0
DWIDTH 6 0
BBX 5 7 0 0
BITMAP
20
30
50
50
78
88
88
ENDCHAR
STARTCHAR 0042
ENCODING 66
SWIDTH 720 0
DWIDTH 6 0
BBX 4 7 1 0
BITMAP
F0
90
90
F0
90
90
F0
ENDCHAR
STARTCHAR 0043
ENCODING 67
SWIDTH 720 0
DWIDTH 6 0
BBX 6 7 0 0
BITMAP
38
48
80
80
84
48
78
ENDCHAR
STARTCHAR 0044
ENCODING 68
SWIDTH 720 0
DWIDTH 6 0
BBX 5 7 1 0
BITMAP
F0
90
90
88
90
90
F0
ENDCHAR
STARTCHAR 0045
ENCODING 69
SWIDTH 720 0
DWIDTH 6 0
BBX 4 7 1 0
BITMAP
F0
80
80
F0
80
80
F0
ENDCHAR
STARTCHAR 0046
ENCODING 70
SWIDTH 600 0
DWIDTH 5 0
BBX 4 7 1 0
BITMAP
F0
80
80
E0
80
80
80
ENDCHAR
STARTCHAR 0047
ENCODING 71
SWIDTH 720 0
DWIDTH 6 0
BBX 6 7 0 0
BITMAP
38
44
80
9C
84
44
3C
ENDCHAR
STARTCHAR 0048
ENCODING 72
SWIDTH 720 0
DWIDTH 6 0
BBX 4 7 1 0
BITMAP
90
90
90
F0
90
90
90
ENDCHAR
STARTCHAR 0049
ENCODING 73
SWIDTH 240 0
DWIDTH 2 0
BBX 1 7 1 0
BITMAP
80
80
80
80
80
80
80
ENDCHAR
STARTCHAR 004A
ENCODING 74
SWIDTH 480 0
DWIDTH 4 0
BBX 4 7 0 0
BITMAP
10
10
10
10
10
90
60
ENDCHAR
STARTCHAR 004B
ENCODING 75
SWIDTH 720 0
DWIDTH 6 0
BBX 4 7 1 0
BITMAP
90
A0
C0
C0
A0
90
90
ENDCHAR
STARTCHAR 004C
ENCODING 76
SWIDTH 600 0
DWIDTH 5 0
BBX 3 7 1 0
BITMAP
80
80
80
80
80
80
E0
ENDCHAR
STARTCHAR 004D
ENCODING 77
SWIDTH 840 0
DWIDTH 7 0
BBX 5 7 1 0
BITMAP
88
98
98
D8
D8
E8
A8
ENDCHAR
STARTCHAR 004E
ENCODING 78
SWIDTH 720 0
DWIDTH 6 0
BBX 4 7 1 0
BITMAP
90
90
D0
D0
B0
90
90
ENDCHAR
STARTCHAR 004F
ENCODING 79
SWIDTH 720 0
DWIDTH 6 0
BBX 6 7 0 0
BITMAP
38
44
84
84
84
44
38
ENDCHAR
STARTCHAR 0050
ENCODING 80
SWIDTH 720 0
DWIDTH 6 0
BBX 4 7 1 0
BITMAP
F0
90
90
F0
80
80
80
ENDCHAR
STARTCHAR 0051
ENCODING 81
SWIDTH 720 0
DWIDTH 6 0
BBX 6 7 0 0
BITMAP
38
44
84
84
84
4C
3C
ENDCHAR
STARTCHAR 0052
ENCODING 82
SWIDTH 720 0
DWIDTH 6 0
BBX 4 7 1 0
BITMAP
F0
90
90
F0
90
90
90
ENDCHAR
STARTCHAR 0053
ENCODING 83
SWIDTH 720 0
DWIDTH 6 0
BBX 5 7 0 0
BITMAP
70
88
40
30
08
88
78
ENDCHAR
STARTCHAR 0054
ENCODING 84
SWIDTH 600 0
DWIDTH 5 0
BBX 5 7 0 0
BITMAP
F8
20
20
20
20
20
20
ENDCHAR
STARTCHAR 0055
ENCODING 85
SWIDTH 720 0
DWIDTH 6 0
BBX 4 7 1 0
BITMAP
90
90
90
90
90
90
F0
ENDCHAR
STARTCHAR 0056
ENCODING 86
SWIDTH 720 0
DWIDTH 6 0
BBX 5 7 0 0
BITMAP
88
48
48
50
50
30
20
ENDCHAR
STARTCHAR 0057
ENCODING 87
SWIDTH 960 0
DWIDTH 8 0
BBX 8 7 0 0
BITMAP
91
9A
5A
6A
6A
66
24
ENDCHAR
STARTCHAR 0058
ENCODING 88
SWIDTH 720 0
DWIDTH 6 0
BBX 5 7 0 0
BITMAP
48
50
30
20
30
48
88
ENDCHAR
STARTCHAR 0059
ENCODING 89
SWIDTH 720 0
DWIDTH 6 0
BBX 5 7 0 0
BITMAP
88
48
50
30
20
20
20
ENDCHAR
STARTCHAR 005A
ENCODING 90
SWIDTH 600 0
DWIDTH 5 0
BBX 5 7 0 0
BITMAP
F8
10
10
20
40
40
F8
ENDCHAR
STARTCHAR 005B
ENCODING 91
SWIDTH 240 0
DWIDTH 2 0
BBX 1 9 1 -2
BITMAP
80
80
80
80
80
80
80
80
80
ENDCHAR
STARTCHAR 005C
ENCODING 92
SWIDTH 240 0
DWIDTH 2 0
BBX 2 6 0 0
BITMAP
80
80
80
80
40
40
ENDCHAR
STARTCHAR 005D
ENCODING 93
SWIDTH 240 0
DWIDTH 2 0
BBX 2 9 0 -2
BITMAP
C0
40
40
40
40
40
40
40
C0
ENDCHAR
STARTCHAR 005E
ENCODING 94
SWIDTH 480 0
DWIDTH 4 0
BBX 3 3 0 3
BITMAP
40
60
A0
ENDCHAR
STARTCHAR 005F
ENCODING 95
SWIDTH 600 0
DWIDTH 5 0
BBX 3 1 1 -2
BITMAP
E0
ENDCHAR
STARTCHAR 0060
ENCODING 96
SWIDTH 360 0
DWIDTH 3 0
BBX 1 1 0 6
BITMAP
80
ENDCHAR
STARTCHAR 0061
ENCODING 97
SWIDTH 600 0
DWIDTH 5 0
BBX 4 5 0 0
BITMAP
70
10
70
90
70
ENDCHAR
STARTCHAR 0062
ENCODING 98
SWIDTH 600 0
DWIDTH 5 0
BBX 4 7 0 0
BITMAP
80
80
F0
90
90
90
F0
ENDCHAR
STARTCHAR 0063
ENCODING 99
SWIDTH 480 0
DWIDTH 4 0
BBX 4 5 0 0
BITMAP
60
90
80
90
60
ENDCHAR
STARTCHAR 0064
ENCODING 100
SWIDTH 600 0
DWIDTH 5 0
BBX 4 7 0 0
BITMAP
10
10
70
90
90
90
70
ENDCHAR
STARTCHAR 0065
ENCODING 101
SWIDTH 600 0
DWIDTH 5 0
BBX 4 5 0 0
BITMAP
70
90
F0
90
70
ENDCHAR
STARTCHAR 0066
ENCODING 102
SWIDTH 240 0
DWIDTH 2 0
BBX 2 7 0 0
BITMAP
40
80
C0
80
80
80
80
ENDCHAR
STARTCHAR 0067
ENCODING 103
SWIDTH 600 0
DWIDTH 5 0
BBX 4 7 0 -2
BITMAP
70
90
90
90
70
90
60
ENDCHAR
STARTCHAR 0068
ENCODING 104
SWIDTH 600 0
DWIDTH 5 0
BBX 3 7 1 0
BITMAP
80
80
E0
A0
A0
A0
A0
ENDCHAR
STARTCHAR 0069
ENCODING 105
SWIDTH 240 0
DWIDTH 2 0
BBX 1 5 0 2
BITMAP
80
80
80
80
80
ENDCHAR
STARTCHAR 006A
ENCODING 106
SWIDTH 240 0
DWIDTH 2 0
BBX 1 7 0 0
BITMAP
80
80
80
80
80
80
80
ENDCHAR
STARTCHAR 006B
ENCODING 107
SWIDTH 480 0
DWIDTH 4 0
BBX 4 7 0 0
BITMAP
80
80
A0
A0
E0
A0
90
ENDCHAR
STARTCHAR 006C
ENCODING 108
SWIDTH 240 0
DWIDTH 2 0
BBX 1 7 0 0
BITMAP
80
80
80
80
80
80
80
ENDCHAR
STARTCHAR 006D
ENCODING 109
SWIDTH 840 0
DWIDTH 7 0
BBX 5 5 1 0
BITMAP
F8
A8
A8
A8
A8
ENDCHAR
STARTCHAR 006E
ENCODING 110
SWIDTH 600 0
DWIDTH 5 0
BBX 3 5 1 0
BITMAP
E0
A0
A0
A0
A0
ENDCHAR
STARTCHAR 006F
ENCODING 111
SWIDTH 600 0
DWIDTH 5 0
BBX 4 5 0 0
BITMAP
70
90
90
90
70
ENDCHAR
STARTCHAR 0070
ENCODING 112
SWIDTH 600 0
DWIDTH 5 0
BBX 4 7 0 -2
BITMAP
F0
90
90
90
F0
80
80
ENDCHAR
STARTCHAR 0071
ENCODING 113
SWIDTH 600 0
DWIDTH 5 0
BBX 4 7 0 -2
BITMAP
70
90
90
90
70
10
10
ENDCHAR
STARTCHAR 0072
ENCODING 114
SWIDTH 360 0
DWIDTH 3 0
BBX 2 5 1 0
BITMAP
C0
80
80
80
80
ENDCHAR
STARTCHAR 0073
ENCODING 115
SWIDTH 480 0
DWIDTH 4 0
BBX 4 5 0 0
BITMAP
60
80
60
90
60
ENDCHAR
STARTCHAR 0074
ENCODING 116
SWIDTH 240 0
DWIDTH 2 0
BBX 2 6 0 0
BITMAP
80
C0
80
80
80
40
ENDCHAR
STARTCHAR 0075
ENCODING 117
SWIDTH 600 0
DWIDTH 5 0
BBX 3 5 1 0
BITMAP
A0
A0
A0
A0
E0
ENDCHAR
STARTCHAR 0076
ENCODING 118
SWIDTH 480 0
DWIDTH 4 0
BBX 4 5 0 0
BITMAP
90
90
60
60
60
ENDCHAR
STARTCHAR 0077
ENCODING 119
SWIDTH 720 0
DWIDTH 6 0
BBX 6 5 0 0
BITMAP
A4
B4
B8
58
48
ENDCHAR
STARTCHAR 0078
ENCODING 120
SWIDTH 480 0
DWIDTH 4 0
BBX 4 5 0 0
BITMAP
90
60
40
60
90
ENDCHAR
STARTCHAR 0079
ENCODING 121
SWIDTH 480 0
DWIDTH 4 0
BBX 4 7 0 -2
BITMAP
90
A0
60
60
40
40
C0
ENDCHAR
STARTCHAR 007A
ENCODING 122
SWIDTH 480 0
DWIDTH 4 0
BBX 4 5 0 0
BITMAP
F0
20
40
40
F0
ENDCHAR
STARTCHAR 007B
ENCODING 123
SWIDTH 360 0
DWIDTH 3 0
BBX 2 8 0 -1
BITMAP
40
40
40
80
40
40
40
40
ENDCHAR
STARTCHAR 007C
ENCODING 124
SWIDTH 240 0
DWIDTH 2 0
BBX 1 7 0 -1
BITMAP
80
80
80
80
80
80
80
ENDCHAR
STARTCHAR 007D
ENCODING 125
SWIDTH 360 0
DWIDTH 3 0
BBX 2 8 0 -1
BITMAP
80
40
40
40
40
40
40
80
ENDCHAR
STARTCHAR 007E
ENCODING 126
SWIDTH 600 0
DWIDTH 5 0
BBX 3 2 1 2
BITMAP
80
60
ENDCHAR
STARTCHAR 00A0
ENCODING 160
SWIDTH 240 0
DWIDTH 2 0
BBX 0 0 0 0
BITMAP
ENDCHAR
STARTCHAR 00A1
ENCODING 161
SWIDTH 360 0
DWIDTH 3 0
BBX 1 6 1 -1
BITMAP
80
80
80
80
80
80
ENDCHAR
STARTCHAR 00A2
ENCODING 162
SWIDTH 600 0
DWIDTH 5 0
BBX 4 6 0 -1
BITMAP
20
70
A0
A0
70
20
ENDCHAR
STARTCHAR 00A3
ENCODING 163
SWIDTH 600 0
DWIDTH 5 0
BBX 4 7 0 0
BITMAP
70
90
80
40
40
40
F0
ENDCHAR
STARTCHAR 00A4
ENCODING 164
SWIDTH 600 0
DWIDTH 5 0
BBX 3 4 1 1
BITMAP
60
A0
A0
60
ENDCHAR
STARTCHAR 00A5
ENCODING 165
SWIDTH 600 0
DWIDTH 5 0
BBX 4 6 0 0
BITMAP
80
50
20
20
20
20
ENDCHAR
STARTCHAR 00A6
ENCODING 166
SWIDTH 240 0
DWIDTH 2 0
BBX 1 7 0 -1
BITMAP
80
80
80
00
00
80
80
ENDCHAR
STARTCHAR 00A7
ENCODING 167
SWIDTH 600 0
DWIDTH 5 0
BBX 4 9 0 -2
BITMAP
70
50
40
B0
90
70
10
90
60
ENDCHAR
STARTCHAR 00A8
ENCODING 168
SWIDTH 360 0
DWIDTH 3 0
BBX 1 1 0 5
BITMAP
80
ENDCHAR
STARTCHAR 00A9
ENCODING 169
SWIDTH 720 0
DWIDTH 6 0
BBX 6 7 0 0
BITMAP
78
84
F4
C4
D4
A4
78
ENDCHAR
STARTCHAR 00AA
ENCODING 170
SWIDTH 360 0
DWIDTH 3 0
BBX 3 4 0 3
BITMAP
C0
40
A0
40
ENDCHAR
STARTCHAR 00AB
ENCODING 171
SWIDTH 600 0
DWIDTH 5 0
BBX 3 2 1 2
BITMAP
C0
A0
ENDCHAR
STARTCHAR 00AC
ENCODING 172
SWIDTH 600 0
DWIDTH 5 0
BBX 5 2 0 1
BITMAP
F8
08
ENDCHAR
STARTCHAR 00AD
ENCODING 173
SWIDTH 360 0
DWIDTH 3 0
BBX 2 1 0 2
BITMAP
C0
ENDCHAR
STARTCHAR 00AE
ENCODING 174
SWIDTH 720 0
DWIDTH 6 0
BBX 6 7 0 0
BITMAP
78
B4
CC
B4
D4
8C
78
ENDCHAR
STARTCHAR 00AF
ENCODING 175
SWIDTH 360 0
DWIDTH 3 0
BBX 3 1 0 5
BITMAP
E0
ENDCHAR
STARTCHAR 00B0
ENCODING 176
SWIDTH 360 0
DWIDTH 3 0
BBX 3 2 0 3
BITMAP
E0
E0
ENDCHAR
STARTCHAR 00B1
ENCODING 177
SWIDTH 600 0
DWIDTH 5 0
BBX 4 5 0 0
BITMAP
20
F0
20
20
F0
ENDCHAR
STARTCHAR 00B2
ENCODING 178
SWIDTH 360 0
DWIDTH 3 0
BBX 3 3 0 3
BITMAP
C0
20
C0
ENDCHAR
STARTCHAR 00B3
ENCODING 179
SWIDTH 360 0
DWIDTH 3 0
BBX 3 3 0 3
BITMAP
C0
40
E0
ENDCHAR
STARTCHAR 00B4
ENCODING 180
SWIDTH 360 0
DWIDTH 3 0
BBX 1 1 1 6
BITMAP
80
ENDCHAR
STARTCHAR 00B5
ENCODING 181
SWIDTH 600 0
DWIDTH 5 0
BBX 4 6 1 -2
BITMAP
A0
A0
A0
A0
F0
80
ENDCHAR
STARTCHAR 00B6
ENCODING 182
SWIDTH 480 0
DWIDTH 4 0
BBX 4 8 0 -1
BITMAP
70
F0
F0
70
30
30
30
30
ENDCHAR
STARTCHAR 00B7
ENCODING 183
SWIDTH 240 0
DWIDTH 2 0
BBX 1 1 1 2
BITMAP
80
ENDCHAR
STARTCHAR 00B8
ENCODING 184
SWIDTH 360 0
DWIDTH 3 0
BBX 2 2 0 -2
BITMAP
40
C0
ENDCHAR
STARTCHAR 00B9
ENCODING 185
SWIDTH 360 0
DWIDTH 3 0
BBX 1 4 1 2
BITMAP
80
80
80
80
ENDCHAR
STARTCHAR 00BA
ENCODING 186
SWIDTH 360 0
DWIDTH 3 0
BBX 3 4 0 3
BITMAP
C0
A0
C0
40
ENDCHAR
STARTCHAR 00BB
ENCODING 187
SWIDTH 600 0
DWIDTH 5 0
BBX 3 3 1 1
BITMAP
40
A0
C0
ENDCHAR
STARTCHAR 00BC
ENCODING 188
SWIDTH 840 0
DWIDTH 7 0
BBX 5 5 1 0
BITMAP
80
90
A0
58
58
ENDCHAR
STARTCHAR 00BD
ENCODING 189
SWIDTH 840 0
DWIDTH 7 0
BBX 6 6 1 0
BITMAP
80
B0
A0
DC
48
9C
ENDCHAR
STARTCHAR 00BE
ENCODING 190
SWIDTH 840 0
DWIDTH 7 0
BBX 6 5 0 0
BITMAP
E0
48
B0
5C
2C
ENDCHAR
STARTCHAR 00BF
ENCODING 191
SWIDTH 600 0
DWIDTH 5 0
BBX 3 7 1 -2
BITMAP
40
00
40
80
80
A0
40
ENDCHAR
STARTCHAR 00C0
ENCODING 192
SWIDTH 720 0
DWIDTH 6 0
BBX 5 9 0 0
BITMAP
20
00
20
30
50
50
78
88
88
ENDCHAR
STARTCHAR 00C1
ENCODING 193
SWIDTH 720 0
DWIDTH 6 0
BBX 5 9 0 0
BITMAP
10
00
20
30
50
50
78
88
88
ENDCHAR
STARTCHAR 00C2
ENCODING 194
SWIDTH 720 0
DWIDTH 6 0
BBX 5 9 0 0
BITMAP
20
10
20
30
50
50
78
88
88
ENDCHAR
STARTCHAR 00C3
ENCODING 195
SWIDTH 720 0
DWIDTH 6 0
BBX 5 8 0 1
BITMAP
30
20
30
50
50
78
88
88
ENDCHAR
STARTCHAR 00C4
ENCODING 196
SWIDTH 720 0
DWIDTH 6 0
BBX 5 9 0 0
BITMAP
30
00
20
30
50
50
78
88
88
ENDCHAR
STARTCHAR 00C5
ENCODING 197
SWIDTH 720 0
DWIDTH 6 0
BBX 5 9 0 0
BITMAP
70
20
20
30
50
50
78
88
88
ENDCHAR
STARTCHAR 00C6
ENCODING 198
SWIDTH 960 0
DWIDTH 8 0
BBX 8 7 0 0
BITMAP
3F
28
48
4F
78
88
8F
ENDCHAR
STARTCHAR 00C7
ENCODING 199
SWIDTH 720 0
DWIDTH 6 0
BBX 5 9 0 -2
BITMAP
38
48
80
80
80
88
48
30
10
ENDCHAR
STARTCHAR 00C8
ENCODING 200
SWIDTH 720 0
DWIDTH 6 0
BBX 4 9 1 0
BITMAP
40
00
F0
80
80
F0
80
80
F0
ENDCHAR
STARTCHAR 00C9
ENCODING 201
SWIDTH 720 0
DWIDTH 6 0
BBX 4 9 1 0
BITMAP
20
00
F0
80
80
F0
80
80
F0
ENDCHAR
STARTCHAR 00CA
ENCODING 202
SWIDTH 720 0
DWIDTH 6 0
BBX 4 9 1 0
BITMAP
40
20
F0
80
80
F0
80
80
F0
ENDCHAR
STARTCHAR 00CB
ENCODING 203
SWIDTH 720 0
DWIDTH 6 0
BBX 4 9 1 0
BITMAP
60
00
F0
80
80
F0
80
80
F0
ENDCHAR
STARTCHAR 00CC
ENCODING 204
SWIDTH 240 0
DWIDTH 2 0
BBX 2 9 0 0
BITMAP
80
00
40
40
40
40
40
40
40
ENDCHAR
STARTCHAR 00CD
ENCODING 205
SWIDTH 240 0
DWIDTH 2 0
BBX 1 9 1 0
BITMAP
80
00
80
80
80
80
80
80
80
ENDCHAR
STARTCHAR 00CE
ENCODING 206
SWIDTH 240 0
DWIDTH 2 0
BBX 2 9 0 0
BITMAP
40
80
40
40
40
40
40
40
40
ENDCHAR
STARTCHAR 00CF
ENCODING 207
SWIDTH 240 0
DWIDTH 2 0
BBX 2 9 0 0
BITMAP
C0
00
40
40
40
40
40
40
40
ENDCHAR
STARTCHAR 00D0
ENCODING 208
SWIDTH 720 0
DWIDTH 6 0
BBX 6 7 0 0
BITMAP
78
48
48
E4
48
48
70
ENDCHAR
STARTCHAR 00D1
ENCODING 209
SWIDTH 720 0
DWIDTH 6 0
BBX 4 9 1 0
BITMAP
40
20
90
90
D0
D0
B0
90
90
ENDCHAR
STARTCHAR 00D2
ENCODING 210
SWIDTH 720 0
DWIDTH 6 0
BBX 6 9 0 0
BITMAP
20
10
38
44
84
84
84
44
38
ENDCHAR
STARTCHAR 00D3
ENCODING 211
SWIDTH 720 0
DWIDTH 6 0
BBX 6 9 0 0
BITMAP
10
00
38
44
84
84
84
44
38
ENDCHAR
STARTCHAR 00D4
ENCODING 212
SWIDTH 720 0
DWIDTH 6 0
BBX 6 9 0 0
BITMAP
10
20
38
44
84
84
84
44
38
ENDCHAR
STARTCHAR 00D5
ENCODING 213
SWIDTH 720 0
DWIDTH 6 0
BBX 6 9 0 0
BITMAP
28
10
38
44
84
84
84
44
38
ENDCHAR
STARTCHAR 00D6
ENCODING 214
SWIDTH 720 0
DWIDTH 6 0
BBX 6 9 0 0
BITMAP
30
00
38
44
84
84
84
44
38
ENDCHAR
STARTCHAR 00D7
ENCODING 215
SWIDTH 600 0
DWIDTH 5 0
BBX 3 3 1 1
BITMAP
E0
40
A0
ENDCHAR
STARTCHAR 00D8
ENCODING 216
SWIDTH 720 0
DWIDTH 6 0
BBX 6 7 0 0
BITMAP
3C
4C
94
A4
A4
44
B8
ENDCHAR
STARTCHAR 00D9
ENCODING 217
SWIDTH 720 0
DWIDTH 6 0
BBX 4 9 1 0
BITMAP
40
00
90
90
90
90
90
90
F0
ENDCHAR
STARTCHAR 00DA
ENCODING 218
SWIDTH 720 0
DWIDTH 6 0
BBX 4 9 1 0
BITMAP
20
00
90
90
90
90
90
90
F0
ENDCHAR
STARTCHAR 00DB
ENCODING 219
SWIDTH 720 0
DWIDTH 6 0
BBX 4 9 1 0
BITMAP
60
00
90
90
90
90
90
90
F0
ENDCHAR
STARTCHAR 00DC
ENCODING 220
SWIDTH 720 0
DWIDTH 6 0
BBX 4 9 1 0
BITMAP
60
00
90
90
90
90
90
90
F0
ENDCHAR
STARTCHAR 00DD
ENCODING 221
SWIDTH 720 0
DWIDTH 6 0
BBX 5 9 0 0
BITMAP
10
00
88
48
50
30
20
20
20
ENDCHAR
STARTCHAR 00DE
ENCODING 222
SWIDTH 720 0
DWIDTH 6 0
BBX 4 7 1 0
BITMAP
80
E0
90
90
F0
80
80
ENDCHAR
STARTCHAR 00DF
ENCODING 223
SWIDTH 600 0
DWIDTH 5 0
BBX 4 7 1 0
BITMAP
E0
A0
A0
E0
90
90
E0
ENDCHAR
STARTCHAR 00E0
ENCODING 224
SWIDTH 600 0
DWIDTH 5 0
BBX 4 7 0 0
BITMAP
40
00
70
10
70
90
70
ENDCHAR
STARTCHAR 00E1
ENCODING 225
SWIDTH 600 0
DWIDTH 5 0
BBX 4 7 0 0
BITMAP
20
00
70
10
70
90
70
ENDCHAR
STARTCHAR 00E2
ENCODING 226
SWIDTH 600 0
DWIDTH 5 0
BBX 4 7 0 0
BITMAP
20
00
70
10
70
90
70
ENDCHAR
STARTCHAR 00E3
ENCODING 227
SWIDTH 600 0
DWIDTH 5 0
BBX 4 6 0 0
BITMAP
60
70
10
70
90
70
ENDCHAR
STARTCHAR 00E4
ENCODING 228
SWIDTH 600 0
DWIDTH 5 0
BBX 4 6 0 0
BITMAP
40
70
10
70
90
70
ENDCHAR
STARTCHAR 00E5
ENCODING 229
SWIDTH 600 0
DWIDTH 5 0
BBX 4 7 0 0
BITMAP
60
00
70
10
70
90
70
ENDCHAR
STARTCHAR 00E6
ENCODING 230
SWIDTH 840 0
DWIDTH 7 0
BBX 7 5 0 0
BITMAP
7C
12
7E
92
6C
ENDCHAR
STARTCHAR 00E7
ENCODING 231
SWIDTH 480 0
DWIDTH 4 0
BBX 4 7 0 -2
BITMAP
60
90
80
80
90
60
20
ENDCHAR
STARTCHAR 00E8
ENCODING 232
SWIDTH 600 0
DWIDTH 5 0
BBX 4 7 0 0
BITMAP
40
00
70
90
F0
90
70
ENDCHAR
STARTCHAR 00E9
ENCODING 233
SWIDTH 600 0
DWIDTH 5 0
BBX 4 7 0 0
BITMAP
20
00
70
90
F0
90
70
ENDCHAR
STARTCHAR 00EA
ENCODING 234
SWIDTH 600 0
DWIDTH 5 0
BBX 4 7 0 0
BITMAP
20
00
70
90
F0
90
70
ENDCHAR
STARTCHAR 00EB
ENCODING 235
SWIDTH 600 0
DWIDTH 5 0
BBX 4 6 0 0
BITMAP
40
70
90
F0
90
70
ENDCHAR
STARTCHAR 00EC
ENCODING 236
SWIDTH 240 0
DWIDTH 2 0
BBX 1 7 0 0
BITMAP
80
00
80
80
80
80
80
ENDCHAR
STARTCHAR 00ED
ENCODING 237
SWIDTH 240 0
DWIDTH 2 0
BBX 1 7 1 0
BITMAP
80
00
80
80
80
80
80
ENDCHAR
STARTCHAR 00EE
ENCODING 238
SWIDTH 240 0
DWIDTH 2 0
BBX 2 7 0 0
BITMAP
C0
00
80
80
80
80
80
ENDCHAR
STARTCHAR 00EF
ENCODING 239
SWIDTH 240 0
DWIDTH 2 0
BBX 2 6 0 0
BITMAP
C0
80
80
80
80
80
ENDCHAR
STARTCHAR 00F0
ENCODING 240
SWIDTH 600 0
DWIDTH 5 0
BBX 4 7 0 0
BITMAP
60
20
70
90
90
90
70
ENDCHAR
STARTCHAR 00F1
ENCODING 241
SWIDTH 600 0
DWIDTH 5 0
BBX 3 6 1 0
BITMAP
C0
E0
A0
A0
A0
A0
ENDCHAR
STARTCHAR 00F2
ENCODING 242
SWIDTH 600 0
DWIDTH 5 0
BBX 4 7 0 0
BITMAP
40
00
70
90
90
90
70
ENDCHAR
STARTCHAR 00F3
ENCODING 243
SWIDTH 600 0
DWIDTH 5 0
BBX 4 7 0 0
BITMAP
20
00
70
90
90
90
70
ENDCHAR
STARTCHAR 00F4
ENCODING 244
SWIDTH 600 0
DWIDTH 5 0
BBX 4 7 0 0
BITMAP
20
00
70
90
90
90
70
ENDCHAR
STARTCHAR 00F5
ENCODING 245
SWIDTH 600 0
DWIDTH 5 0
BBX 4 6 0 0
BITMAP
60
70
90
90
90
70
ENDCHAR
STARTCHAR 00F6
ENCODING 246
SWIDTH 600 0
DWIDTH 5 0
BBX 4 6 0 0
BITMAP
40
70
90
90
90
70
ENDCHAR
STARTCHAR 00F7
ENCODING 247
SWIDTH 600 0
DWIDTH 5 0
BBX 4 4 0 0
BITMAP
20
00
F0
20
ENDCHAR
STARTCHAR 00F8
ENCODING 248
SWIDTH 600 0
DWIDTH 5 0
BBX 4 5 0 0
BITMAP
70
90
B0
D0
F0
ENDCHAR
STARTCHAR 00F9
ENCODING 249
SWIDTH 600 0
DWIDTH 5 0
BBX 3 7 1 0
BITMAP
80
00
A0
A0
A0
A0
E0
ENDCHAR
STARTCHAR 00FA
ENCODING 250
SWIDTH 600 0
DWIDTH 5 0
BBX 3 7 1 0
BITMAP
40
00
A0
A0
A0
A0
E0
ENDCHAR
STARTCHAR 00FB
ENCODING 251
SWIDTH 600 0
DWIDTH 5 0
BBX 3 7 1 0
BITMAP
40
00
A0
A0
A0
A0
E0
ENDCHAR
STARTCHAR 00FC
ENCODING 252
SWIDTH 600 0
DWIDTH 5 0
BBX 3 6 1 0
BITMAP
80
A0
A0
A0
A0
E0
ENDCHAR
STARTCHAR 00FD
ENCODING 253
SWIDTH 480 0
DWIDTH 4 0
BBX 4 9 0 -2
BITMAP
20
00
90
A0
60
60
40
40
C0
ENDCHAR
STARTCHAR 00FE
ENCODING 254
SWIDTH 600 0
DWIDTH 5 0
BBX 4 8 0 -2
BITMAP
80
F0
90
90
90
F0
80
80
ENDCHAR
STARTCHAR 00FF
ENCODING 255
SWIDTH 480 0
DWIDTH 4 0
BBX 4 8 0 -2
BITMAP
60
90
A0
60
60
40
40
C0
ENDCHAR
STARTCHAR 0100
ENCODING 256
SWIDTH 720 0
DWIDTH 6 0
BBX 5 9 0 0
BITMAP
30
00
20
30
50
50
78
88
88
ENDCHAR
STARTCHAR 0101
ENCODING 257
SWIDTH 600 0
DWIDTH 5 0
BBX 4 7 0 0
BITMAP
60
00
70
10
70
90
70
ENDCHAR
STARTCHAR 0102
ENCODING 258
SWIDTH 720 0
DWIDTH 6 0
BBX 5 9 0 0
BITMAP
30
00
20
30
50
50
78
88
88
ENDCHAR
STARTCHAR 0103
ENCODING 259
SWIDTH 600 0
DWIDTH 5 0
BBX 4 7 0 0
BITMAP
60
00
70
10
70
90
70
ENDCHAR
STARTCHAR 0104
ENCODING 260
SWIDTH 720 0
DWIDTH 6 0
BBX 5 9 0 -2
BITMAP
20
30
50
50
78
88
88
08
08
ENDCHAR
STARTCHAR 0105
ENCODING 261
SWIDTH 600 0
DWIDTH 5 0
BBX 4 6 0 -1
BITMAP
70
10
70
90
70
10
ENDCHAR
STARTCHAR 0106
ENCODING 262
SWIDTH 720 0
DWIDTH 6 0
BBX 6 9 0 0
BITMAP
10
00
38
48
80
80
84
48
78
ENDCHAR
STARTCHAR 0107
ENCODING 263
SWIDTH 480 0
DWIDTH 4 0
BBX 4 7 0 0
BITMAP
20
00
60
90
80
90
60
ENDCHAR
STARTCHAR 0108
ENCODING 264
SWIDTH 720 0
DWIDTH 6 0
BBX 6 9 0 0
BITMAP
10
20
38
48
80
80
84
48
78
ENDCHAR
STARTCHAR 0109
ENCODING 265
SWIDTH 480 0
DWIDTH 4 0
BBX 4 7 0 0
BITMAP
20
00
60
90
80
90
60
ENDCHAR
STARTCHAR 010A
ENCODING 266
SWIDTH 720 0
DWIDTH 6 0
BBX 6 9 0 0
BITMAP
10
00
38
48
80
80
84
48
78
ENDCHAR
STARTCHAR 010B
ENCODING 267
SWIDTH 480 0
DWIDTH 4 0
BBX 4 6 0 0
BITMAP
20
60
90
80
90
60
ENDCHAR
STARTCHAR 010C
ENCODING 268
SWIDTH 720 0
DWIDTH 6 0
BBX 6 9 0 0
BITMAP
20
10
38
48
80
80
84
48
78
ENDCHAR
STARTCHAR 010D
ENCODING 269
SWIDTH 480 0
DWIDTH 4 0
BBX 4 7 0 0
BITMAP
60
00
60
90
80
90
60
ENDCHAR
STARTCHAR 010E
ENCODING 270
SWIDTH 720 0
DWIDTH 6 0
BBX 5 9 1 0
BITMAP
20
40
F0
90
90
88
90
90
F0
ENDCHAR
STARTCHAR 010F
ENCODING 271
SWIDTH 600 0
DWIDTH 5 0
BBX 5 7 0 0
BITMAP
18
10
70
90
90
90
70
ENDCHAR
STARTCHAR 0110
ENCODING 272
SWIDTH 720 0
DWIDTH 6 0
BBX 6 7 0 0
BITMAP
78
48
48
E4
48
48
70
ENDCHAR
STARTCHAR 0111
ENCODING 273
SWIDTH 600 0
DWIDTH 5 0
BBX 4 7 0 0
BITMAP
10
10
70
90
90
90
70
ENDCHAR
STARTCHAR 0112
ENCODING 274
SWIDTH 720 0
DWIDTH 6 0
BBX 4 9 1 0
BITMAP
60
00
F0
80
80
F0
80
80
F0
ENDCHAR
STARTCHAR 0113
ENCODING 275
SWIDTH 600 0
DWIDTH 5 0
BBX 4 7 0 0
BITMAP
70
00
70
90
F0
90
70
ENDCHAR
STARTCHAR 0114
ENCODING 276
SWIDTH 720 0
DWIDTH 6 0
BBX 4 9 1 0
BITMAP
60
00
F0
80
80
F0
80
80
F0
ENDCHAR
STARTCHAR 0115
ENCODING 277
SWIDTH 600 0
DWIDTH 5 0
BBX 4 7 0 0
BITMAP
50
20
70
90
F0
90
70
ENDCHAR
STARTCHAR 0116
ENCODING 278
SWIDTH 720 0
DWIDTH 6 0
BBX 4 9 1 0
BITMAP
40
00
F0
80
80
F0
80
80
F0
ENDCHAR
STARTCHAR 0117
ENCODING 279
SWIDTH 600 0
DWIDTH 5 0
BBX 4 6 0 0
BITMAP
20
70
90
F0
90
70
ENDCHAR
STARTCHAR 0118
ENCODING 280
SWIDTH 720 0
DWIDTH 6 0
BBX 4 8 1 -2
BITMAP
F0
80
80
F0
80
80
F0
20
ENDCHAR
STARTCHAR 0119
ENCODING 281
SWIDTH 600 0
DWIDTH 5 0
BBX 4 6 0 -1
BITMAP
70
90
F0
90
70
20
ENDCHAR
STARTCHAR 011A
ENCODING 282
SWIDTH 720 0
DWIDTH 6 0
BBX 4 9 1 0
BITMAP
20
40
F0
80
80
F0
80
80
F0
ENDCHAR
STARTCHAR 011B
ENCODING 283
SWIDTH 600 0
DWIDTH 5 0
BBX 4 7 0 0
BITMAP
60
00
70
90
F0
90
70
ENDCHAR
STARTCHAR 011C
ENCODING 284
SWIDTH 720 0
DWIDTH 6 0
BBX 6 9 0 0
BITMAP
10
20
38
44
80
9C
84
44
3C
ENDCHAR
STARTCHAR 011D
ENCODING 285
SWIDTH 600 0
DWIDTH 5 0
BBX 4 9 0 -2
BITMAP
20
00
70
90
90
90
70
90
60
ENDCHAR
STARTCHAR 011E
ENCODING 286
SWIDTH 720 0
DWIDTH 6 0
BBX 6 9 0 0
BITMAP
30
00
38
44
80
9C
84
44
3C
ENDCHAR
STARTCHAR 011F
ENCODING 287
SWIDTH 600 0
DWIDTH 5 0
BBX 4 9 0 -2
BITMAP
60
00
70
90
90
90
70
90
60
ENDCHAR
STARTCHAR 0120
ENCODING 288
SWIDTH 720 0
DWIDTH 6 0
BBX 6 9 0 0
BITMAP
10
00
38
44
80
9C
84
44
3C
ENDCHAR
STARTCHAR 0121
ENCODING 289
SWIDTH 600 0
DWIDTH 5 0
BBX 4 8 0 -2
BITMAP
20
70
90
90
90
70
90
60
ENDCHAR
STARTCHAR 0122
ENCODING 290
SWIDTH 720 0
DWIDTH 6 0
BBX 6 9 0 -3
BITMAP
38
44
80
9C
84
44
3C
00
10
ENDCHAR
STARTCHAR 0123
ENCODING 291
SWIDTH 600 0
DWIDTH 5 0
BBX 4 9 0 -1
BITMAP
20
00
70
90
90
90
70
90
60
ENDCHAR
STARTCHAR 0124
ENCODING 292
SWIDTH 720 0
DWIDTH 6 0
BBX 4 9 1 0
BITMAP
20
40
90
90
90
F0
90
90
90
ENDCHAR
STARTCHAR 0125
ENCODING 293
SWIDTH 600 0
DWIDTH 5 0
BBX 4 9 0 0
BITMAP
80
40
80
80
70
90
90
90
90
ENDCHAR
STARTCHAR 0126
ENCODING 294
SWIDTH 720 0
DWIDTH 6 0
BBX 6 7 0 0
BITMAP
88
FC
88
78
88
88
88
ENDCHAR
STARTCHAR 0127
ENCODING 295
SWIDTH 600 0
DWIDTH 5 0
BBX 4 7 0 0
BITMAP
80
C0
70
90
90
90
90
ENDCHAR
STARTCHAR 0128
ENCODING 296
SWIDTH 240 0
DWIDTH 2 0
BBX 2 9 0 0
BITMAP
80
40
40
40
40
40
40
40
40
ENDCHAR
STARTCHAR 0129
ENCODING 297
SWIDTH 240 0
DWIDTH 2 0
BBX 2 6 0 0
BITMAP
C0
80
80
80
80
80
ENDCHAR
STARTCHAR 012A
ENCODING 298
SWIDTH 240 0
DWIDTH 2 0
BBX 2 9 0 0
BITMAP
C0
00
40
40
40
40
40
40
40
ENDCHAR
STARTCHAR 012B
ENCODING 299
SWIDTH 240 0
DWIDTH 2 0
BBX 2 7 0 0
BITMAP
C0
00
80
80
80
80
80
ENDCHAR
STARTCHAR 012C
ENCODING 300
SWIDTH 240 0
DWIDTH 2 0
BBX 2 9 0 0
BITMAP
C0
00
40
40
40
40
40
40
40
ENDCHAR
STARTCHAR 012D
ENCODING 301
SWIDTH 240 0
DWIDTH 2 0
BBX 2 7 0 0
BITMAP
C0
00
80
80
80
80
80
ENDCHAR
STARTCHAR 012E
ENCODING 302
SWIDTH 240 0
DWIDTH 2 0
BBX 1 8 1 -2
BITMAP
80
80
80
80
80
80
80
80
ENDCHAR
STARTCHAR 012F
ENCODING 303
SWIDTH 240 0
DWIDTH 2 0
BBX 1 7 0 0
BITMAP
80
80
80
80
80
80
80
ENDCHAR
STARTCHAR 0130
ENCODING 304
SWIDTH 240 0
DWIDTH 2 0
BBX 1 9 1 0
BITMAP
80
00
80
80
80
80
80
80
80
ENDCHAR
STARTCHAR 0131
ENCODING 305
SWIDTH 240 0
DWIDTH 2 0
BBX 1 5 0 0
BITMAP
80
80
80
80
80
ENDCHAR
STARTCHAR 0132
ENCODING 306
SWIDTH 720 0
DWIDTH 6 0
BBX 4 7 1 0
BITMAP
90
90
90
90
90
D0
F0
ENDCHAR
STARTCHAR 0133
ENCODING 307
SWIDTH 480 0
DWIDTH 4 0
BBX 2 9 1 -2
BITMAP
40
00
C0
C0
C0
C0
C0
40
40
ENDCHAR
STARTCHAR 0134
ENCODING 308
SWIDTH 480 0
DWIDTH 4 0
BBX 4 9 0 0
BITMAP
30
00
10
10
10
10
10
90
60
ENDCHAR
STARTCHAR 0135
ENCODING 309
SWIDTH 240 0
DWIDTH 2 0
BBX 2 9 0 -2
BITMAP
C0
00
80
80
80
80
80
80
80
ENDCHAR
STARTCHAR 0136
ENCODING 310
SWIDTH 720 0
DWIDTH 6 0
BBX 4 9 1 -3
BITMAP
90
A0
C0
C0
A0
90
90
00
40
ENDCHAR
STARTCHAR 0137
ENCODING 311
SWIDTH 480 0
DWIDTH 4 0
BBX 4 9 0 -3
BITMAP
80
80
A0
A0
E0
A0
90
00
20
ENDCHAR
STARTCHAR 0138
ENCODING 312
SWIDTH 480 0
DWIDTH 4 0
BBX 3 4 0 0
BITMAP
A0
C0
A0
A0
ENDCHAR
STARTCHAR 0139
ENCODING 313
SWIDTH 600 0
DWIDTH 5 0
BBX 3 9 1 0
BITMAP
80
00
80
80
80
80
80
80
E0
ENDCHAR
STARTCHAR 013A
ENCODING 314
SWIDTH 240 0
DWIDTH 2 0
BBX 1 9 1 0
BITMAP
80
00
80
80
80
80
80
80
80
ENDCHAR
STARTCHAR 013B
ENCODING 315
SWIDTH 600 0
DWIDTH 5 0
BBX 3 10 1 -3
BITMAP
80
80
80
80
80
80
E0
00
40
40
ENDCHAR
STARTCHAR 013C
ENCODING 316
SWIDTH 240 0
DWIDTH 2 0
BBX 1 9 0 -3
BITMAP
80
80
80
80
80
80
80
00
80
ENDCHAR
STARTCHAR 013D
ENCODING 317
SWIDTH 600 0
DWIDTH 5 0
BBX 3 7 1 0
BITMAP
C0
80
80
80
80
80
E0
ENDCHAR
STARTCHAR 013E
ENCODING 318
SWIDTH 240 0
DWIDTH 2 0
BBX 2 7 1 0
BITMAP
C0
80
80
80
80
80
80
ENDCHAR
STARTCHAR 013F
ENCODING 319
SWIDTH 600 0
DWIDTH 5 0
BBX 3 7 1 0
BITMAP
80
80
80
A0
80
80
E0
ENDCHAR
STARTCHAR 0140
ENCODING 320
SWIDTH 360 0
DWIDTH 3 0
BBX 2 7 1 0
BITMAP
80
80
80
C0
80
80
80
ENDCHAR
STARTCHAR 0141
ENCODING 321
SWIDTH 600 0
DWIDTH 5 0
BBX 5 7 0 0
BITMAP
80
80
A0
40
80
80
78
ENDCHAR
STARTCHAR 0142
ENCODING 322
SWIDTH 240 0
DWIDTH 2 0
BBX 1 7 0 0
BITMAP
80
80
80
80
80
80
80
ENDCHAR
STARTCHAR 0143
ENCODING 323
SWIDTH 720 0
DWIDTH 6 0
BBX 4 9 1 0
BITMAP
20
00
90
90
D0
D0
B0
90
90
ENDCHAR
STARTCHAR 0144
ENCODING 324
SWIDTH 600 0
DWIDTH 5 0
BBX 3 7 1 0
BITMAP
40
00
E0
A0
A0
A0
A0
ENDCHAR
STARTCHAR 0145
ENCODING 325
SWIDTH 720 0
DWIDTH 6 0
BBX 4 9 1 -3
BITMAP
90
90
D0
D0
B0
90
90
00
40
ENDCHAR
STARTCHAR 0146
ENCODING 326
SWIDTH 600 0
DWIDTH 5 0
BBX 3 7 1 -2
BITMAP
E0
A0
A0
A0
A0
40
40
ENDCHAR
STARTCHAR 0147
ENCODING 327
SWIDTH 720 0
DWIDTH 6 0
BBX 4 9 1 0
BITMAP
60
00
90
90
D0
D0
B0
90
90
ENDCHAR
STARTCHAR 0148
ENCODING 328
SWIDTH 600 0
DWIDTH 5 0
BBX 3 7 1 0
BITMAP
C0
00
E0
A0
A0
A0
A0
ENDCHAR
STARTCHAR 0149
ENCODING 329
SWIDTH 600 0
DWIDTH 5 0
BBX 4 7 0 0
BITMAP
80
80
70
50
50
50
50
ENDCHAR
STARTCHAR 014A
ENCODING 330
SWIDTH 720 0
DWIDTH 6 0
BBX 4 10 1 -3
BITMAP
70
90
90
90
90
90
90
10
10
30
ENDCHAR
STARTCHAR 014B
ENCODING 331
SWIDTH 600 0
DWIDTH 5 0
BBX 3 7 1 -2
BITMAP
E0
A0
A0
A0
A0
20
20
ENDCHAR
STARTCHAR 014C
ENCODING 332
SWIDTH 720 0
DWIDTH 6 0
BBX 6 9 0 0
BITMAP
30
00
38
44
84
84
84
44
38
ENDCHAR
STARTCHAR 014D
ENCODING 333
SWIDTH 600 0
DWIDTH 5 0
BBX 4 7 0 0
BITMAP
60
00
70
90
90
90
70
ENDCHAR
STARTCHAR 014E
ENCODING 334
SWIDTH 720 0
DWIDTH 6 0
BBX 6 9 0 0
BITMAP
30
00
38
44
84
84
84
44
38
ENDCHAR
STARTCHAR 014F
ENCODING 335
SWIDTH 600 0
DWIDTH 5 0
BBX 4 7 0 0
BITMAP
60
00
70
90
90
90
70
ENDCHAR
STARTCHAR 0150
ENCODING 336
SWIDTH 720 0
DWIDTH 6 0
BBX 6 9 0 0
BITMAP
18
20
38
44
84
84
84
44
38
ENDCHAR
STARTCHAR 0151
ENCODING 337
SWIDTH 600 0
DWIDTH 5 0
BBX 4 7 0 0
BITMAP
30
00
70
90
90
90
70
ENDCHAR
STARTCHAR 0152
ENCODING 338
SWIDTH 960 0
DWIDTH 8 0
BBX 8 7 0 0
BITMAP
7F
48
88
8F
88
88
7F
ENDCHAR
STARTCHAR 0153
ENCODING 339
SWIDTH 960 0
DWIDTH 8 0
BBX 7 5 0 0
BITMAP
7E
92
8E
90
7E
ENDCHAR
STARTCHAR 0154
ENCODING 340
SWIDTH 720 0
DWIDTH 6 0
BBX 4 9 1 0
BITMAP
20
00
F0
90
90
F0
90
90
90
ENDCHAR
STARTCHAR 0155
ENCODING 341
SWIDTH 360 0
DWIDTH 3 0
BBX 2 7 1 0
BITMAP
80
00
C0
80
80
80
80
ENDCHAR
STARTCHAR 0156
ENCODING 342
SWIDTH 720 0
DWIDTH 6 0
BBX 4 9 1 -3
BITMAP
F0
90
90
F0
90
90
90
00
40
ENDCHAR
STARTCHAR 0157
ENCODING 343
SWIDTH 360 0
DWIDTH 3 0
BBX 2 5 1 -2
BITMAP
C0
80
80
80
80
ENDCHAR
STARTCHAR 0158
ENCODING 344
SWIDTH 720 0
DWIDTH 6 0
BBX 4 9 1 0
BITMAP
60
00
F0
90
90
F0
90
90
90
ENDCHAR
STARTCHAR 0159
ENCODING 345
SWIDTH 360 0
DWIDTH 3 0
BBX 3 7 0 0
BITMAP
C0
00
A0
C0
80
80
80
ENDCHAR
STARTCHAR 015A
ENCODING 346
SWIDTH 720 0
DWIDTH 6 0
BBX 5 9 0 0
BITMAP
10
20
70
88
40
30
08
88
78
ENDCHAR
STARTCHAR 015B
ENCODING 347
SWIDTH 480 0
DWIDTH 4 0
BBX 4 7 0 0
BITMAP
20
00
60
80
60
90
60
ENDCHAR
STARTCHAR 015C
ENCODING 348
SWIDTH 720 0
DWIDTH 6 0
BBX 5 9 0 0
BITMAP
20
10
70
88
40
30
08
88
78
ENDCHAR
STARTCHAR 015D
ENCODING 349
SWIDTH 480 0
DWIDTH 4 0
BBX 4 7 0 0
BITMAP
60
00
60
80
60
90
60
ENDCHAR
STARTCHAR 015E
ENCODING 350
SWIDTH 720 0
DWIDTH 6 0
BBX 5 9 0 -2
BITMAP
70
88
40
70
08
88
48
30
10
ENDCHAR
STARTCHAR 015F
ENCODING 351
SWIDTH 480 0
DWIDTH 4 0
BBX 4 7 0 -2
BITMAP
60
90
60
10
90
60
20
ENDCHAR
STARTCHAR 0160
ENCODING 352
SWIDTH 720 0
DWIDTH 6 0
BBX 5 9 0 0
BITMAP
10
20
70
88
40
30
08
88
78
ENDCHAR
STARTCHAR 0161
ENCODING 353
SWIDTH 480 0
DWIDTH 4 0
BBX 4 7 0 0
BITMAP
60
00
60
80
60
90
60
ENDCHAR
STARTCHAR 0162
ENCODING 354
SWIDTH 600 0
DWIDTH 5 0
BBX 5 9 0 -2
BITMAP
F8
20
20
20
20
20
20
20
10
ENDCHAR
STARTCHAR 0163
ENCODING 355
SWIDTH 240 0
DWIDTH 2 0
BBX 2 7 0 -1
BITMAP
80
C0
80
80
80
40
40
ENDCHAR
STARTCHAR 0164
ENCODING 356
SWIDTH 600 0
DWIDTH 5 0
BBX 5 9 0 0
BITMAP
10
20
F8
20
20
20
20
20
20
ENDCHAR
STARTCHAR 0165
ENCODING 357
SWIDTH 360 0
DWIDTH 3 0
BBX 3 7 0 0
BITMAP
20
00
C0
80
80
80
40
ENDCHAR
STARTCHAR 0166
ENCODING 358
SWIDTH 600 0
DWIDTH 5 0
BBX 5 7 0 0
BITMAP
F8
20
70
20
20
20
20
ENDCHAR
STARTCHAR 0167
ENCODING 359
SWIDTH 240 0
DWIDTH 2 0
BBX 2 6 0 0
BITMAP
80
C0
80
80
80
40
ENDCHAR
STARTCHAR 0168
ENCODING 360
SWIDTH 720 0
DWIDTH 6 0
BBX 4 9 1 0
BITMAP
40
20
90
90
90
90
90
90
F0
ENDCHAR
STARTCHAR 0169
ENCODING 361
SWIDTH 600 0
DWIDTH 5 0
BBX 3 6 1 0
BITMAP
C0
A0
A0
A0
A0
E0
ENDCHAR
STARTCHAR 016A
ENCODING 362
SWIDTH 720 0
DWIDTH 6 0
BBX 4 9 1 0
BITMAP
60
00
90
90
90
90
90
90
F0
ENDCHAR
STARTCHAR 016B
ENCODING 363
SWIDTH 600 0
DWIDTH 5 0
BBX 3 7 1 0
BITMAP
C0
00
A0
A0
A0
A0
E0
ENDCHAR
STARTCHAR 016C
ENCODING 364
SWIDTH 720 0
DWIDTH 6 0
BBX 4 9 1 0
BITMAP
60
00
90
90
90
90
90
90
F0
ENDCHAR
STARTCHAR 016D
ENCODING 365
SWIDTH 600 0
DWIDTH 5 0
BBX 3 7 1 0
BITMAP
A0
40
A0
A0
A0
A0
E0
ENDCHAR
STARTCHAR 016E
ENCODING 366
SWIDTH 720 0
DWIDTH 6 0
BBX 4 9 1 0
BITMAP
60
00
90
90
90
90
90
90
F0
ENDCHAR
STARTCHAR 016F
ENCODING 367
SWIDTH 600 0
DWIDTH 5 0
BBX 3 7 1 0
BITMAP
C0
00
A0
A0
A0
A0
E0
ENDCHAR
STARTCHAR 0170
ENCODING 368
SWIDTH 720 0
DWIDTH 6 0
BBX 4 9 1 0
BITMAP
10
60
90
90
90
90
90
90
F0
ENDCHAR
STARTCHAR 0171
ENCODING 369
SWIDTH 600 0
DWIDTH 5 0
BBX 3 7 1 0
BITMAP
60
00
A0
A0
A0
A0
E0
ENDCHAR
STARTCHAR 0172
ENCODING 370
SWIDTH 720 0
DWIDTH 6 0
BBX 4 8 1 -1
BITMAP
90
90
90
90
90
90
F0
20
ENDCHAR
STARTCHAR 0173
ENCODING 371
SWIDTH 600 0
DWIDTH 5 0
BBX 3 6 1 -1
BITMAP
A0
A0
A0
A0
E0
40
ENDCHAR
STARTCHAR 0174
ENCODING 372
SWIDTH 960 0
DWIDTH 8 0
BBX 8 9 0 0
BITMAP
10
08
91
9A
5A
6A
6A
66
24
ENDCHAR
STARTCHAR 0175
ENCODING 373
SWIDTH 720 0
DWIDTH 6 0
BBX 6 7 0 0
BITMAP
30
00
A4
B4
B8
58
48
ENDCHAR
STARTCHAR 0176
ENCODING 374
SWIDTH 720 0
DWIDTH 6 0
BBX 5 9 0 0
BITMAP
20
10
88
48
50
30
20
20
20
ENDCHAR
STARTCHAR 0177
ENCODING 375
SWIDTH 480 0
DWIDTH 4 0
BBX 4 9 0 -2
BITMAP
60
00
90
A0
60
60
40
40
C0
ENDCHAR
STARTCHAR 0178
ENCODING 376
SWIDTH 720 0
DWIDTH 6 0
BBX 5 9 0 0
BITMAP
30
00
88
48
50
30
20
20
20
ENDCHAR
STARTCHAR 0179
ENCODING 377
SWIDTH 600 0
DWIDTH 5 0
BBX 5 9 0 0
BITMAP
10
00
F8
10
10
20
40
40
F8
ENDCHAR
STARTCHAR 017A
ENCODING 378
SWIDTH 480 0
DWIDTH 4 0
BBX 4 7 0 0
BITMAP
20
00
F0
20
40
40
F0
ENDCHAR
STARTCHAR 017B
ENCODING 379
SWIDTH 600 0
DWIDTH 5 0
BBX 5 9 0 0
BITMAP
20
00
F8
10
10
20
40
40
F8
ENDCHAR
STARTCHAR 017C
ENCODING 380
SWIDTH 480 0
DWIDTH 4 0
BBX 4 6 0 0
BITMAP
20
F0
20
40
40
F0
ENDCHAR
STARTCHAR 017D
ENCODING 381
SWIDTH 600 0
DWIDTH 5 0
BBX 5 9 0 0
BITMAP
10
20
F8
10
10
20
40
40
F8
ENDCHAR
STARTCHAR 017E
ENCODING 382
SWIDTH 480 0
DWIDTH 4 0
BBX 4 7 0 0
BITMAP
60
00
F0
20
40
40
F0
ENDCHAR
STARTCHAR 017F
ENCODING 383
SWIDTH 240 0
DWIDTH 2 0
BBX 2 7 0 0
BITMAP
40
80
80
80
80
80
80
ENDCHAR
STARTCHAR 0192
ENCODING 402
SWIDTH 600 0
DWIDTH 5 0
BBX 4 9 0 -2
BITMAP
10
20
70
20
20
40
40
40
80
ENDCHAR
STARTCHAR 01FA
ENCODING 506
SWIDTH 720 0
DWIDTH 6 0
BBX 5 10 0 0
BITMAP
20
50
20
20
30
50
50
78
88
88
ENDCHAR
STARTCHAR 01FB
ENCODING 507
SWIDTH 600 0
DWIDTH 5 0
BBX 4 8 0 0
BITMAP
40
60
00
70
10
70
90
70
ENDCHAR
STARTCHAR 01FC
ENCODING 508
SWIDTH 960 0
DWIDTH 8 0
BBX 8 9 0 0
BITMAP
04
00
3F
28
48
4F
78
88
8F
ENDCHAR
STARTCHAR 01FD
ENCODING 509
SWIDTH 840 0
DWIDTH 7 0
BBX 7 7 0 0
BITMAP
10
00
7C
12
7E
92
6C
ENDCHAR
STARTCHAR 01FE
ENCODING 510
SWIDTH 720 0
DWIDTH 6 0
BBX 6 9 0 0
BITMAP
10
00
3C
4C
94
A4
A4
44
B8
ENDCHAR
STARTCHAR 01FF
ENCODING 511
SWIDTH 600 0
DWIDTH 5 0
BBX 4 7 0 0
BITMAP
20
00
70
90
B0
D0
F0
ENDCHAR
STARTCHAR 0218
ENCODING 536
SWIDTH 720 0
DWIDTH 6 0
BBX 5 9 0 -3
BITMAP
70
88
40
30
08
88
78
00
20
ENDCHAR
STARTCHAR 0219
ENCODING 537
SWIDTH 480 0
DWIDTH 4 0
BBX 4 7 0 -3
BITMAP
60
80
60
90
60
00
40
ENDCHAR
STARTCHAR 021A
ENCODING 538
SWIDTH 600 0
DWIDTH 5 0
BBX 5 10 0 -3
BITMAP
F8
20
20
20
20
20
20
00
20
20
ENDCHAR
STARTCHAR 021B
ENCODING 539
SWIDTH 240 0
DWIDTH 2 0
BBX 2 9 0 -3
BITMAP
80
C0
80
80
80
40
00
40
40
ENDCHAR
STARTCHAR 02C6
ENCODING 710
SWIDTH 360 0
DWIDTH 3 0
BBX 1 1 1 6
BITMAP
80
ENDCHAR
STARTCHAR 02C7
ENCODING 711
SWIDTH 360 0
DWIDTH 3 0
BBX 2 1 0 6
BITMAP
C0
ENDCHAR
STARTCHAR 02C9
ENCODING 713
SWIDTH 360 0
DWIDTH 3 0
BBX 3 1 0 5
BITMAP
E0
ENDCHAR
STARTCHAR 02D8
ENCODING 728
SWIDTH 360 0
DWIDTH 3 0
BBX 3 2 0 5
BITMAP
A0
40
ENDCHAR
STARTCHAR 02D9
ENCODING 729
SWIDTH 360 0
DWIDTH 3 0
BBX 1 1 1 5
BITMAP
80
ENDCHAR
STARTCHAR 02DA
ENCODING 730
SWIDTH 360 0
DWIDTH 3 0
BBX 1 1 1 5
BITMAP
80
ENDCHAR
STARTCHAR 02DB
ENCODING 731
SWIDTH 360 0
DWIDTH 3 0
BBX 1 1 0 -2
BITMAP
80
ENDCHAR
STARTCHAR 02DC
ENCODING 732
SWIDTH 360 0
DWIDTH 3 0
BBX 3 1 0 5
BITMAP
E0
ENDCHAR
STARTCHAR 02DD
ENCODING 733
SWIDTH 360 0
DWIDTH 3 0
BBX 2 1 0 6
BITMAP
C0
ENDCHAR
STARTCHAR 0384
ENCODING 900
SWIDTH 360 0
DWIDTH 3 0
BBX 1 1 1 5
BITMAP
80
ENDCHAR
STARTCHAR 0385
ENCODING 901
SWIDTH 360 0
DWIDTH 3 0
BBX 2 2 0 5
BITMAP
40
80
ENDCHAR
STARTCHAR 0386
ENCODING 902
SWIDTH 720 0
DWIDTH 6 0
BBX 5 7 0 0
BITMAP
A0
30
50
50
78
88
88
ENDCHAR
STARTCHAR 0387
ENCODING 903
SWIDTH 240 0
DWIDTH 2 0
BBX 1 1 1 2
BITMAP
80
ENDCHAR
STARTCHAR 0388
ENCODING 904
SWIDTH 840 0
DWIDTH 7 0
BBX 6 7 0 0
BITMAP
FC
C0
40
78
40
40
7C
ENDCHAR
STARTCHAR 0389
ENCODING 905
SWIDTH 840 0
DWIDTH 7 0
BBX 6 7 0 0
BITMAP
C4
C4
44
7C
44
44
44
ENDCHAR
STARTCHAR 038A
ENCODING 906
SWIDTH 360 0
DWIDTH 3 0
BBX 2 7 0 0
BITMAP
C0
C0
40
40
40
40
40
ENDCHAR
STARTCHAR 038C
ENCODING 908
SWIDTH 720 0
DWIDTH 6 0
BBX 6 7 0 0
BITMAP
B8
44
84
84
84
44
38
ENDCHAR
STARTCHAR 038E
ENCODING 910
SWIDTH 840 0
DWIDTH 7 0
BBX 6 7 0 0
BITMAP
C4
A4
28
18
10
10
10
ENDCHAR
STARTCHAR 038F
ENCODING 911
SWIDTH 720 0
DWIDTH 6 0
BBX 6 7 0 0
BITMAP
F8
44
84
84
84
48
EC
ENDCHAR
STARTCHAR 0390
ENCODING 912
SWIDTH 240 0
DWIDTH 2 0
BBX 2 7 0 0
BITMAP
80
C0
80
80
80
80
80
ENDCHAR
STARTCHAR 0391
ENCODING 913
SWIDTH 720 0
DWIDTH 6 0
BBX 5 7 0 0
BITMAP
20
30
50
50
78
88
88
ENDCHAR
STARTCHAR 0392
ENCODING 914
SWIDTH 720 0
DWIDTH 6 0
BBX 4 7 1 0
BITMAP
F0
90
90
F0
90
90
F0
ENDCHAR
STARTCHAR 0393
ENCODING 915
SWIDTH 600 0
DWIDTH 5 0
BBX 4 7 1 0
BITMAP
F0
80
80
80
80
80
80
ENDCHAR
STARTCHAR 0394
ENCODING 916
SWIDTH 720 0
DWIDTH 6 0
BBX 5 7 0 0
BITMAP
20
30
50
50
48
88
F8
ENDCHAR
STARTCHAR 0395
ENCODING 917
SWIDTH 720 0
DWIDTH 6 0
BBX 4 7 1 0
BITMAP
F0
80
80
F0
80
80
F0
ENDCHAR
STARTCHAR 0396
ENCODING 918
SWIDTH 600 0
DWIDTH 5 0
BBX 5 7 0 0
BITMAP
F8
10
10
20
40
40
F8
ENDCHAR
STARTCHAR 0397
ENCODING 919
SWIDTH 720 0
DWIDTH 6 0
BBX 4 7 1 0
BITMAP
90
90
90
F0
90
90
90
ENDCHAR
STARTCHAR 0398
ENCODING 920
SWIDTH 720 0
DWIDTH 6 0
BBX 6 7 0 0
BITMAP
38
44
84
B4
84
44
38
ENDCHAR
STARTCHAR 0399
ENCODING 921
SWIDTH 240 0
DWIDTH 2 0
BBX 1 7 1 0
BITMAP
80
80
80
80
80
80
80
ENDCHAR
STARTCHAR 039A
ENCODING 922
SWIDTH 720 0
DWIDTH 6 0
BBX 4 7 1 0
BITMAP
90
A0
C0
C0
A0
90
90
ENDCHAR
STARTCHAR 039B
ENCODING 923
SWIDTH 720 0
DWIDTH 6 0
BBX 5 7 0 0
BITMAP
20
30
50
50
48
88
88
ENDCHAR
STARTCHAR 039C
ENCODING 924
SWIDTH 840 0
DWIDTH 7 0
BBX 5 7 1 0
BITMAP
88
98
98
D8
D8
E8
A8
ENDCHAR
STARTCHAR 039D
ENCODING 925
SWIDTH 720 0
DWIDTH 6 0
BBX 4 7 1 0
BITMAP
90
90
D0
D0
B0
90
90
ENDCHAR
STARTCHAR 039E
ENCODING 926
SWIDTH 600 0
DWIDTH 5 0
BBX 4 7 1 0
BITMAP
F0
00
00
F0
00
00
F0
ENDCHAR
STARTCHAR 039F
ENCODING 927
SWIDTH 720 0
DWIDTH 6 0
BBX 6 7 0 0
BITMAP
38
44
84
84
84
44
38
ENDCHAR
STARTCHAR 03A0
ENCODING 928
SWIDTH 720 0
DWIDTH 6 0
BBX 4 7 1 0
BITMAP
F0
90
90
90
90
90
90
ENDCHAR
STARTCHAR 03A1
ENCODING 929
SWIDTH 720 0
DWIDTH 6 0
BBX 4 7 1 0
BITMAP
F0
90
90
F0
80
80
80
ENDCHAR
STARTCHAR 03A3
ENCODING 931
SWIDTH 600 0
DWIDTH 5 0
BBX 5 7 0 0
BITMAP
F8
40
20
10
20
40
F8
ENDCHAR
STARTCHAR 03A4
ENCODING 932
SWIDTH 600 0
DWIDTH 5 0
BBX 5 7 0 0
BITMAP
F8
20
20
20
20
20
20
ENDCHAR
STARTCHAR 03A5
ENCODING 933
SWIDTH 720 0
DWIDTH 6 0
BBX 5 7 0 0
BITMAP
88
48
50
30
20
20
20
ENDCHAR
STARTCHAR 03A6
ENCODING 934
SWIDTH 840 0
DWIDTH 7 0
BBX 5 7 1 0
BITMAP
20
F0
A8
A8
A8
F0
20
ENDCHAR
STARTCHAR 03A7
ENCODING 935
SWIDTH 720 0
DWIDTH 6 0
BBX 5 7 0 0
BITMAP
48
50
30
20
30
48
88
ENDCHAR
STARTCHAR 03A8
ENCODING 936
SWIDTH 840 0
DWIDTH 7 0
BBX 5 7 1 0
BITMAP
A8
A8
A8
A8
A8
70
20
ENDCHAR
STARTCHAR 03A9
ENCODING 937
SWIDTH 720 0
DWIDTH 6 0
BBX 6 7 0 0
BITMAP
78
44
84
84
84
48
EC
ENDCHAR
STARTCHAR 03AA
ENCODING 938
SWIDTH 240 0
DWIDTH 2 0
BBX 2 9 0 0
BITMAP
C0
00
40
40
40
40
40
40
40
ENDCHAR
STARTCHAR 03AB
ENCODING 939
SWIDTH 720 0
DWIDTH 6 0
BBX 5 9 0 0
BITMAP
30
00
88
48
50
30
20
20
20
ENDCHAR
STARTCHAR 03AC
ENCODING 940
SWIDTH 600 0
DWIDTH 5 0
BBX 5 7 0 0
BITMAP
40
00
68
90
90
90
68
ENDCHAR
STARTCHAR 03AD
ENCODING 941
SWIDTH 480 0
DWIDTH 4 0
BBX 4 5 0 2
BITMAP
60
90
40
90
60
ENDCHAR
STARTCHAR 03AE
ENCODING 942
SWIDTH 600 0
DWIDTH 5 0
BBX 3 9 1 -2
BITMAP
40
40
E0
A0
A0
A0
A0
20
20
ENDCHAR
STARTCHAR 03AF
ENCODING 943
SWIDTH 240 0
DWIDTH 2 0
BBX 1 7 0 0
BITMAP
80
00
80
80
80
80
80
ENDCHAR
STARTCHAR 03B0
ENCODING 944
SWIDTH 600 0
DWIDTH 5 0
BBX 3 7 1 0
BITMAP
40
80
A0
A0
A0
A0
E0
ENDCHAR
STARTCHAR 03B1
ENCODING 945
SWIDTH 600 0
DWIDTH 5 0
BBX 5 5 0 0
BITMAP
68
90
90
90
68
ENDCHAR
STARTCHAR 03B2
ENCODING 946
SWIDTH 600 0
DWIDTH 5 0
BBX 3 8 1 -2
BITMAP
E0
A0
A0
A0
A0
A0
E0
80
ENDCHAR
STARTCHAR 03B3
ENCODING 947
SWIDTH 480 0
DWIDTH 4 0
BBX 4 6 0 -1
BITMAP
90
A0
60
60
40
40
ENDCHAR
STARTCHAR 03B4
ENCODING 948
SWIDTH 600 0
DWIDTH 5 0
BBX 4 7 0 0
BITMAP
70
20
50
90
90
90
70
ENDCHAR
STARTCHAR 03B5
ENCODING 949
SWIDTH 480 0
DWIDTH 4 0
BBX 4 5 0 0
BITMAP
60
90
40
90
60
ENDCHAR
STARTCHAR 03B6
ENCODING 950
SWIDTH 480 0
DWIDTH 4 0
BBX 4 8 0 -1
BITMAP
70
40
40
80
80
60
10
10
ENDCHAR
STARTCHAR 03B7
ENCODING 951
SWIDTH 600 0
DWIDTH 5 0
BBX 3 7 1 -2
BITMAP
E0
A0
A0
A0
A0
20
20
ENDCHAR
STARTCHAR 03B8
ENCODING 952
SWIDTH 600 0
DWIDTH 5 0
BBX 4 7 0 0
BITMAP
20
D0
90
F0
90
90
70
ENDCHAR
STARTCHAR 03B9
ENCODING 953
SWIDTH 240 0
DWIDTH 2 0
BBX 1 5 0 0
BITMAP
80
80
80
80
80
ENDCHAR
STARTCHAR 03BA
ENCODING 954
SWIDTH 480 0
DWIDTH 4 0
BBX 4 5 0 0
BITMAP
A0
A0
E0
A0
90
ENDCHAR
STARTCHAR 03BB
ENCODING 955
SWIDTH 480 0
DWIDTH 4 0
BBX 4 7 0 0
BITMAP
40
40
20
60
60
90
90
ENDCHAR
STARTCHAR 03BC
ENCODING 956
SWIDTH 600 0
DWIDTH 5 0
BBX 3 6 1 -2
BITMAP
A0
A0
A0
A0
E0
80
ENDCHAR
STARTCHAR 03BD
ENCODING 957
SWIDTH 480 0
DWIDTH 4 0
BBX 4 5 0 0
BITMAP
90
90
60
60
60
ENDCHAR
STARTCHAR 03BE
ENCODING 958
SWIDTH 480 0
DWIDTH 4 0
BBX 4 8 0 -1
BITMAP
E0
80
40
60
80
80
70
10
ENDCHAR
STARTCHAR 03BF
ENCODING 959
SWIDTH 600 0
DWIDTH 5 0
BBX 4 5 0 0
BITMAP
70
90
90
90
70
ENDCHAR
STARTCHAR 03C0
ENCODING 960
SWIDTH 720 0
DWIDTH 6 0
BBX 4 5 1 0
BITMAP
F0
90
90
90
90
ENDCHAR
STARTCHAR 03C1
ENCODING 961
SWIDTH 600 0
DWIDTH 5 0
BBX 4 7 0 -2
BITMAP
70
90
90
90
F0
80
80
ENDCHAR
STARTCHAR 03C2
ENCODING 962
SWIDTH 480 0
DWIDTH 4 0
BBX 4 6 0 -1
BITMAP
70
90
80
40
30
10
ENDCHAR
STARTCHAR 03C3
ENCODING 963
SWIDTH 600 0
DWIDTH 5 0
BBX 5 5 0 0
BITMAP
78
90
90
90
70
ENDCHAR
STARTCHAR 03C4
ENCODING 964
SWIDTH 360 0
DWIDTH 3 0
BBX 3 5 0 0
BITMAP
E0
40
40
40
40
ENDCHAR
STARTCHAR 03C5
ENCODING 965
SWIDTH 600 0
DWIDTH 5 0
BBX 3 5 1 0
BITMAP
A0
A0
A0
A0
E0
ENDCHAR
STARTCHAR 03C6
ENCODING 966
SWIDTH 600 0
DWIDTH 5 0
BBX 5 6 0 -1
BITMAP
70
A8
A8
A8
70
20
ENDCHAR
STARTCHAR 03C7
ENCODING 967
SWIDTH 480 0
DWIDTH 4 0
BBX 4 6 0 -1
BITMAP
90
60
20
20
60
90
ENDCHAR
STARTCHAR 03C8
ENCODING 968
SWIDTH 720 0
DWIDTH 6 0
BBX 4 6 1 -2
BITMAP
D0
D0
D0
D0
F0
40
ENDCHAR
STARTCHAR 03C9
ENCODING 969
SWIDTH 840 0
DWIDTH 7 0
BBX 5 5 1 0
BITMAP
90
A8
A8
A8
F0
ENDCHAR
STARTCHAR 03CA
ENCODING 970
SWIDTH 240 0
DWIDTH 2 0
BBX 2 6 0 0
BITMAP
C0
80
80
80
80
80
ENDCHAR
STARTCHAR 03CB
ENCODING 971
SWIDTH 600 0
DWIDTH 5 0
BBX 3 6 1 0
BITMAP
80
A0
A0
A0
A0
E0
ENDCHAR
STARTCHAR 03CC
ENCODING 972
SWIDTH 600 0
DWIDTH 5 0
BBX 4 7 0 0
BITMAP
20
00
70
90
90
90
70
ENDCHAR
STARTCHAR 03CD
ENCODING 973
SWIDTH 600 0
DWIDTH 5 0
BBX 3 7 1 0
BITMAP
40
00
A0
A0
A0
A0
E0
ENDCHAR
STARTCHAR 03CE
ENCODING 974
SWIDTH 840 0
DWIDTH 7 0
BBX 5 7 1 0
BITMAP
20
00
90
A8
A8
A8
F0
ENDCHAR
STARTCHAR 03D1
ENCODING 977
SWIDTH 600 0
DWIDTH 5 0
BBX 4 7 0 0
BITMAP
20
D0
90
70
90
90
60
ENDCHAR
STARTCHAR 03D5
ENCODING 981
SWIDTH 600 0
DWIDTH 5 0
BBX 5 8 0 -2
BITMAP
20
20
F0
A8
A8
70
20
20
ENDCHAR
STARTCHAR 03D6
ENCODING 982
SWIDTH 840 0
DWIDTH 7 0
BBX 5 5 1 0
BITMAP
F0
88
A8
A8
F0
ENDCHAR
STARTCHAR 0400
ENCODING 1024
SWIDTH 720 0
DWIDTH 6 0
BBX 4 9 1 0
BITMAP
40
00
F0
80
80
F0
80
80
F0
ENDCHAR
STARTCHAR 0401
ENCODING 1025
SWIDTH 720 0
DWIDTH 6 0
BBX 4 9 1 0
BITMAP
60
00
F0
80
80
F0
80
80
F0
ENDCHAR
STARTCHAR 0402
ENCODING 1026
SWIDTH 840 0
DWIDTH 7 0
BBX 6 7 0 0
BITMAP
F0
20
2C
34
24
24
2C
ENDCHAR
STARTCHAR 0403
ENCODING 1027
SWIDTH 600 0
DWIDTH 5 0
BBX 3 9 1 0
BITMAP
40
00
E0
80
80
80
80
80
80
ENDCHAR
STARTCHAR 0404
ENCODING 1028
SWIDTH 720 0
DWIDTH 6 0
BBX 6 7 0 0
BITMAP
78
84
80
F0
84
84
78
ENDCHAR
STARTCHAR 0405
ENCODING 1029
SWIDTH 720 0
DWIDTH 6 0
BBX 5 7 0 0
BITMAP
70
88
40
30
08
88
78
ENDCHAR
STARTCHAR 0406
ENCODING 1030
SWIDTH 240 0
DWIDTH 2 0
BBX 1 7 1 0
BITMAP
80
80
80
80
80
80
80
ENDCHAR
STARTCHAR 0407
ENCODING 1031
SWIDTH 240 0
DWIDTH 2 0
BBX 2 9 0 0
BITMAP
C0
00
40
40
40
40
40
40
40
ENDCHAR
STARTCHAR 0408
ENCODING 1032
SWIDTH 480 0
DWIDTH 4 0
BBX 4 7 0 0
BITMAP
10
10
10
10
10
90
60
ENDCHAR
STARTCHAR 0409
ENCODING 1033
SWIDTH 1080 0
DWIDTH 9 0
BBX 9 7 0 0
BITMAP
7800
4800
4800
4F00
4880
4880
8F00
ENDCHAR
STARTCHAR 040A
ENCODING 1034
SWIDTH 960 0
DWIDTH 8 0
BBX 8 7 0 0
BITMAP
90
90
90
FF
91
91
8F
ENDCHAR
STARTCHAR 040B
ENCODING 1035
SWIDTH 840 0
DWIDTH 7 0
BBX 6 7 0 0
BITMAP
F8
20
38
24
24
24
24
ENDCHAR
STARTCHAR 040C
ENCODING 1036
SWIDTH 600 0
DWIDTH 5 0
BBX 3 9 1 0
BITMAP
40
00
A0
C0
C0
C0
C0
A0
A0
ENDCHAR
STARTCHAR 040D
ENCODING 1037
SWIDTH 720 0
DWIDTH 6 0
BBX 4 9 1 0
BITMAP
40
00
90
90
B0
D0
D0
90
90
ENDCHAR
STARTCHAR 040E
ENCODING 1038
SWIDTH 600 0
DWIDTH 5 0
BBX 5 9 0 0
BITMAP
30
00
88
48
50
50
30
20
60
ENDCHAR
STARTCHAR 040F
ENCODING 1039
SWIDTH 720 0
DWIDTH 6 0
BBX 4 8 1 -1
BITMAP
90
90
90
90
90
90
F0
40
ENDCHAR
STARTCHAR 0410
ENCODING 1040
SWIDTH 720 0
DWIDTH 6 0
BBX 5 7 0 0
BITMAP
20
30
50
50
78
88
88
ENDCHAR
STARTCHAR 0411
ENCODING 1041
SWIDTH 600 0
DWIDTH 5 0
BBX 4 7 1 0
BITMAP
F0
80
80
F0
90
90
F0
ENDCHAR
STARTCHAR 0412
ENCODING 1042
SWIDTH 720 0
DWIDTH 6 0
BBX 4 7 1 0
BITMAP
F0
90
90
F0
90
90
F0
ENDCHAR
STARTCHAR 0413
ENCODING 1043
SWIDTH 600 0
DWIDTH 5 0
BBX 3 7 1 0
BITMAP
E0
80
80
80
80
80
80
ENDCHAR
STARTCHAR 0414
ENCODING 1044
SWIDTH 720 0
DWIDTH 6 0
BBX 6 8 0 -1
BITMAP
38
48
48
48
48
48
FC
84
ENDCHAR
STARTCHAR 0415
ENCODING 1045
SWIDTH 720 0
DWIDTH 6 0
BBX 4 7 1 0
BITMAP
F0
80
80
F0
80
80
F0
ENDCHAR
STARTCHAR 0416
ENCODING 1046
SWIDTH 960 0
DWIDTH 8 0
BBX 7 7 0 0
BITMAP
92
52
54
3C
54
52
92
ENDCHAR
STARTCHAR 0417
ENCODING 1047
SWIDTH 600 0
DWIDTH 5 0
BBX 4 7 0 0
BITMAP
70
90
10
30
10
90
70
ENDCHAR
STARTCHAR 0418
ENCODING 1048
SWIDTH 720 0
DWIDTH 6 0
BBX 4 7 1 0
BITMAP
90
90
B0
D0
D0
90
90
ENDCHAR
STARTCHAR 0419
ENCODING 1049
SWIDTH 720 0
DWIDTH 6 0
BBX 4 9 1 0
BITMAP
60
00
90
90
B0
D0
D0
90
90
ENDCHAR
STARTCHAR 041A
ENCODING 1050
SWIDTH 600 0
DWIDTH 5 0
BBX 3 7 1 0
BITMAP
A0
C0
C0
C0
C0
A0
A0
ENDCHAR
STARTCHAR 041B
ENCODING 1051
SWIDTH 600 0
DWIDTH 5 0
BBX 5 7 0 0
BITMAP
78
48
48
48
48
48
88
ENDCHAR
STARTCHAR 041C
ENCODING 1052
SWIDTH 840 0
DWIDTH 7 0
BBX 5 7 1 0
BITMAP
88
98
98
D8
D8
E8
A8
ENDCHAR
STARTCHAR 041D
ENCODING 1053
SWIDTH 720 0
DWIDTH 6 0
BBX 4 7 1 0
BITMAP
90
90
90
F0
90
90
90
ENDCHAR
STARTCHAR 041E
ENCODING 1054
SWIDTH 720 0
DWIDTH 6 0
BBX 6 7 0 0
BITMAP
38
44
84
84
84
44
38
ENDCHAR
STARTCHAR 041F
ENCODING 1055
SWIDTH 720 0
DWIDTH 6 0
BBX 4 7 1 0
BITMAP
F0
90
90
90
90
90
90
ENDCHAR
STARTCHAR 0420
ENCODING 1056
SWIDTH 720 0
DWIDTH 6 0
BBX 4 7 1 0
BITMAP
F0
90
90
F0
80
80
80
ENDCHAR
STARTCHAR 0421
ENCODING 1057
SWIDTH 720 0
DWIDTH 6 0
BBX 6 7 0 0
BITMAP
38
48
80
80
84
48
78
ENDCHAR
STARTCHAR 0422
ENCODING 1058
SWIDTH 600 0
DWIDTH 5 0
BBX 5 7 0 0
BITMAP
F8
20
20
20
20
20
20
ENDCHAR
STARTCHAR 0423
ENCODING 1059
SWIDTH 600 0
DWIDTH 5 0
BBX 5 7 0 0
BITMAP
88
48
50
50
30
20
60
ENDCHAR
STARTCHAR 0424
ENCODING 1060
SWIDTH 720 0
DWIDTH 6 0
BBX 6 7 0 0
BITMAP
10
78
94
94
94
78
10
ENDCHAR
STARTCHAR 0425
ENCODING 1061
SWIDTH 720 0
DWIDTH 6 0
BBX 5 7 0 0
BITMAP
48
50
30
20
30
50
88
ENDCHAR
STARTCHAR 0426
ENCODING 1062
SWIDTH 720 0
DWIDTH 6 0
BBX 5 8 1 -1
BITMAP
90
90
90
90
90
90
F8
08
ENDCHAR
STARTCHAR 0427
ENCODING 1063
SWIDTH 720 0
DWIDTH 6 0
BBX 5 7 0 0
BITMAP
88
88
88
88
78
08
08
ENDCHAR
STARTCHAR 0428
ENCODING 1064
SWIDTH 960 0
DWIDTH 8 0
BBX 7 7 0 0
BITMAP
92
92
92
92
92
92
FE
ENDCHAR
STARTCHAR 0429
ENCODING 1065
SWIDTH 960 0
DWIDTH 8 0
BBX 8 8 0 -1
BITMAP
92
92
92
92
92
92
FF
01
ENDCHAR
STARTCHAR 042A
ENCODING 1066
SWIDTH 840 0
DWIDTH 7 0
BBX 6 7 0 0
BITMAP
E0
20
20
3C
24
24
3C
ENDCHAR
STARTCHAR 042B
ENCODING 1067
SWIDTH 840 0
DWIDTH 7 0
BBX 6 7 1 0
BITMAP
84
84
84
F4
94
94
F4
ENDCHAR
STARTCHAR 042C
ENCODING 1068
SWIDTH 600 0
DWIDTH 5 0
BBX 4 7 1 0
BITMAP
80
80
80
F0
90
90
F0
ENDCHAR
STARTCHAR 042D
ENCODING 1069
SWIDTH 720 0
DWIDTH 6 0
BBX 6 7 0 0
BITMAP
78
88
04
3C
84
88
78
ENDCHAR
STARTCHAR 042E
ENCODING 1070
SWIDTH 960 0
DWIDTH 8 0
BBX 7 7 1 0
BITMAP
9C
A2
C2
C2
C2
A2
9C
ENDCHAR
STARTCHAR 042F
ENCODING 1071
SWIDTH 720 0
DWIDTH 6 0
BBX 5 7 0 0
BITMAP
78
88
88
78
48
48
88
ENDCHAR
STARTCHAR 0430
ENCODING 1072
SWIDTH 600 0
DWIDTH 5 0
BBX 4 5 0 0
BITMAP
70
10
70
90
70
ENDCHAR
STARTCHAR 0431
ENCODING 1073
SWIDTH 600 0
DWIDTH 5 0
BBX 4 7 0 0
BITMAP
10
60
70
90
90
90
70
ENDCHAR
STARTCHAR 0432
ENCODING 1074
SWIDTH 480 0
DWIDTH 4 0
BBX 4 5 0 0
BITMAP
F0
90
F0
90
F0
ENDCHAR
STARTCHAR 0433
ENCODING 1075
SWIDTH 360 0
DWIDTH 3 0
BBX 3 5 0 0
BITMAP
E0
80
80
80
80
ENDCHAR
STARTCHAR 0434
ENCODING 1076
SWIDTH 600 0
DWIDTH 5 0
BBX 5 6 0 -1
BITMAP
70
50
50
50
F8
88
ENDCHAR
STARTCHAR 0435
ENCODING 1077
SWIDTH 600 0
DWIDTH 5 0
BBX 4 5 0 0
BITMAP
70
90
F0
90
70
ENDCHAR
STARTCHAR 0436
ENCODING 1078
SWIDTH 720 0
DWIDTH 6 0
BBX 5 5 0 0
BITMAP
A8
68
70
A8
A8
ENDCHAR
STARTCHAR 0437
ENCODING 1079
SWIDTH 480 0
DWIDTH 4 0
BBX 3 5 0 0
BITMAP
60
A0
20
A0
60
ENDCHAR
STARTCHAR 0438
ENCODING 1080
SWIDTH 600 0
DWIDTH 5 0
BBX 3 5 1 0
BITMAP
A0
A0
E0
A0
A0
ENDCHAR
STARTCHAR 0439
ENCODING 1081
SWIDTH 600 0
DWIDTH 5 0
BBX 3 7 1 0
BITMAP
C0
00
A0
A0
E0
A0
A0
ENDCHAR
STARTCHAR 043A
ENCODING 1082
SWIDTH 480 0
DWIDTH 4 0
BBX 4 5 0 0
BITMAP
A0
A0
E0
A0
90
ENDCHAR
STARTCHAR 043B
ENCODING 1083
SWIDTH 600 0
DWIDTH 5 0
BBX 4 5 0 0
BITMAP
70
50
50
50
90
ENDCHAR
STARTCHAR 043C
ENCODING 1084
SWIDTH 720 0
DWIDTH 6 0
BBX 5 5 0 0
BITMAP
C8
D8
D8
B8
A8
ENDCHAR
STARTCHAR 043D
ENCODING 1085
SWIDTH 600 0
DWIDTH 5 0
BBX 3 5 1 0
BITMAP
A0
A0
E0
A0
A0
ENDCHAR
STARTCHAR 043E
ENCODING 1086
SWIDTH 600 0
DWIDTH 5 0
BBX 4 5 0 0
BITMAP
70
90
90
90
70
ENDCHAR
STARTCHAR 043F
ENCODING 1087
SWIDTH 600 0
DWIDTH 5 0
BBX 3 5 1 0
BITMAP
E0
A0
A0
A0
A0
ENDCHAR
STARTCHAR 0440
ENCODING 1088
SWIDTH 600 0
DWIDTH 5 0
BBX 4 7 0 -2
BITMAP
F0
90
90
90
F0
80
80
ENDCHAR
STARTCHAR 0441
ENCODING 1089
SWIDTH 480 0
DWIDTH 4 0
BBX 4 5 0 0
BITMAP
60
90
80
90
60
ENDCHAR
STARTCHAR 0442
ENCODING 1090
SWIDTH 480 0
DWIDTH 4 0
BBX 4 5 0 0
BITMAP
F0
40
40
40
40
ENDCHAR
STARTCHAR 0443
ENCODING 1091
SWIDTH 480 0
DWIDTH 4 0
BBX 4 7 0 -2
BITMAP
90
A0
60
60
40
40
C0
ENDCHAR
STARTCHAR 0444
ENCODING 1092
SWIDTH 840 0
DWIDTH 7 0
BBX 5 8 1 -2
BITMAP
20
20
F8
A8
A8
F8
20
20
ENDCHAR
STARTCHAR 0445
ENCODING 1093
SWIDTH 480 0
DWIDTH 4 0
BBX 4 5 0 0
BITMAP
90
60
20
60
90
ENDCHAR
STARTCHAR 0446
ENCODING 1094
SWIDTH 600 0
DWIDTH 5 0
BBX 3 6 1 -1
BITMAP
A0
A0
A0
A0
E0
20
ENDCHAR
STARTCHAR 0447
ENCODING 1095
SWIDTH 480 0
DWIDTH 4 0
BBX 4 5 0 0
BITMAP
90
90
90
70
10
ENDCHAR
STARTCHAR 0448
ENCODING 1096
SWIDTH 840 0
DWIDTH 7 0
BBX 5 5 1 0
BITMAP
A8
A8
A8
A8
F8
ENDCHAR
STARTCHAR 0449
ENCODING 1097
SWIDTH 840 0
DWIDTH 7 0
BBX 6 6 1 -1
BITMAP
A8
A8
A8
A8
FC
04
ENDCHAR
STARTCHAR 044A
ENCODING 1098
SWIDTH 600 0
DWIDTH 5 0
BBX 5 5 0 0
BITMAP
C0
40
38
48
38
ENDCHAR
STARTCHAR 044B
ENCODING 1099
SWIDTH 720 0
DWIDTH 6 0
BBX 4 5 1 0
BITMAP
90
90
F0
B0
F0
ENDCHAR
STARTCHAR 044C
ENCODING 1100
SWIDTH 480 0
DWIDTH 4 0
BBX 3 5 1 0
BITMAP
80
80
E0
A0
E0
ENDCHAR
STARTCHAR 044D
ENCODING 1101
SWIDTH 480 0
DWIDTH 4 0
BBX 4 5 0 0
BITMAP
60
90
30
90
60
ENDCHAR
STARTCHAR 044E
ENCODING 1102
SWIDTH 720 0
DWIDTH 6 0
BBX 6 5 0 0
BITMAP
98
A4
E4
A4
98
ENDCHAR
STARTCHAR 044F
ENCODING 1103
SWIDTH 600 0
DWIDTH 5 0
BBX 4 5 0 0
BITMAP
70
90
70
90
90
ENDCHAR
STARTCHAR 0450
ENCODING 1104
SWIDTH 600 0
DWIDTH 5 0
BBX 4 7 0 0
BITMAP
40
00
70
90
F0
90
70
ENDCHAR
STARTCHAR 0451
ENCODING 1105
SWIDTH 600 0
DWIDTH 5 0
BBX 4 6 0 0
BITMAP
40
70
90
F0
90
70
ENDCHAR
STARTCHAR 0452
ENCODING 1106
SWIDTH 600 0
DWIDTH 5 0
BBX 4 9 0 -2
BITMAP
80
C0
B0
D0
90
90
90
10
20
ENDCHAR
STARTCHAR 0453
ENCODING 1107
SWIDTH 360 0
DWIDTH 3 0
BBX 2 7 1 0
BITMAP
80
00
C0
80
80
80
80
ENDCHAR
STARTCHAR 0454
ENCODING 1108
SWIDTH 480 0
DWIDTH 4 0
BBX 4 5 0 0
BITMAP
60
90
C0
90
60
ENDCHAR
STARTCHAR 0455
ENCODING 1109
SWIDTH 480 0
DWIDTH 4 0
BBX 4 5 0 0
BITMAP
60
80
60
90
60
ENDCHAR
STARTCHAR 0456
ENCODING 1110
SWIDTH 240 0
DWIDTH 2 0
BBX 1 5 0 2
BITMAP
80
80
80
80
80
ENDCHAR
STARTCHAR 0457
ENCODING 1111
SWIDTH 240 0
DWIDTH 2 0
BBX 2 6 0 0
BITMAP
C0
40
40
40
40
40
ENDCHAR
STARTCHAR 0458
ENCODING 1112
SWIDTH 240 0
DWIDTH 2 0
BBX 1 6 0 1
BITMAP
80
80
80
80
80
80
ENDCHAR
STARTCHAR 0459
ENCODING 1113
SWIDTH 960 0
DWIDTH 8 0
BBX 7 5 0 0
BITMAP
70
50
4E
52
8E
ENDCHAR
STARTCHAR 045A
ENCODING 1114
SWIDTH 840 0
DWIDTH 7 0
BBX 7 5 0 0
BITMAP
90
90
FC
92
9C
ENDCHAR
STARTCHAR 045B
ENCODING 1115
SWIDTH 600 0
DWIDTH 5 0
BBX 4 7 0 0
BITMAP
80
C0
B0
D0
90
90
90
ENDCHAR
STARTCHAR 045C
ENCODING 1116
SWIDTH 480 0
DWIDTH 4 0
BBX 4 7 0 0
BITMAP
20
00
A0
A0
E0
A0
90
ENDCHAR
STARTCHAR 045D
ENCODING 1117
SWIDTH 600 0
DWIDTH 5 0
BBX 3 7 1 0
BITMAP
80
00
A0
A0
E0
A0
A0
ENDCHAR
STARTCHAR 045E
ENCODING 1118
SWIDTH 480 0
DWIDTH 4 0
BBX 4 9 0 -2
BITMAP
60
00
90
A0
60
60
40
40
C0
ENDCHAR
STARTCHAR 045F
ENCODING 1119
SWIDTH 600 0
DWIDTH 5 0
BBX 3 6 1 -1
BITMAP
A0
A0
A0
A0
E0
40
ENDCHAR
STARTCHAR 0462
ENCODING 1122
SWIDTH 720 0
DWIDTH 6 0
BBX 6 7 0 0
BITMAP
40
F0
40
3C
44
44
3C
ENDCHAR
STARTCHAR 0463
ENCODING 1123
SWIDTH 600 0
DWIDTH 5 0
BBX 5 6 0 0
BITMAP
40
C0
40
70
48
70
ENDCHAR
STARTCHAR 0472
ENCODING 1138
SWIDTH 720 0
DWIDTH 6 0
BBX 6 7 0 0
BITMAP
38
44
84
FC
84
44
38
ENDCHAR
STARTCHAR 0473
ENCODING 1139
SWIDTH 600 0
DWIDTH 5 0
BBX 4 5 0 0
BITMAP
70
90
F0
90
70
ENDCHAR
STARTCHAR 0474
ENCODING 1140
SWIDTH 840 0
DWIDTH 7 0
BBX 5 7 1 0
BITMAP
88
90
90
50
60
60
20
ENDCHAR
STARTCHAR 0475
ENCODING 1141
SWIDTH 600 0
DWIDTH 5 0
BBX 4 5 1 0
BITMAP
B0
A0
A0
40
40
ENDCHAR
STARTCHAR 0490
ENCODING 1168
SWIDTH 480 0
DWIDTH 4 0
BBX 5 8 0 0
BITMAP
08
F0
80
80
80
80
80
80
ENDCHAR
STARTCHAR 0491
ENCODING 1169
SWIDTH 360 0
DWIDTH 3 0
BBX 3 6 1 0
BITMAP
20
C0
80
80
80
80
ENDCHAR
STARTCHAR 0492
ENCODING 1170
SWIDTH 480 0
DWIDTH 4 0
BBX 4 7 0 0
BITMAP
70
80
80
F0
80
80
80
ENDCHAR
STARTCHAR 0493
ENCODING 1171
SWIDTH 360 0
DWIDTH 3 0
BBX 3 5 0 0
BITMAP
60
80
E0
80
80
ENDCHAR
STARTCHAR 0496
ENCODING 1174
SWIDTH 1080 0
DWIDTH 9 0
BBX 8 8 0 -1
BITMAP
92
52
54
3C
52
52
91
01
ENDCHAR
STARTCHAR 0497
ENCODING 1175
SWIDTH 840 0
DWIDTH 7 0
BBX 7 6 0 -1
BITMAP
94
58
78
54
96
02
ENDCHAR
STARTCHAR 0498
ENCODING 1176
SWIDTH 600 0
DWIDTH 5 0
BBX 5 9 0 -2
BITMAP
70
50
10
20
10
88
50
20
60
ENDCHAR
STARTCHAR 0499
ENCODING 1177
SWIDTH 480 0
DWIDTH 4 0
BBX 3 7 0 -2
BITMAP
60
A0
20
A0
A0
40
20
ENDCHAR
STARTCHAR 049A
ENCODING 1178
SWIDTH 720 0
DWIDTH 6 0
BBX 4 8 1 -1
BITMAP
A0
A0
C0
C0
C0
A0
90
10
ENDCHAR
STARTCHAR 049B
ENCODING 1179
SWIDTH 480 0
DWIDTH 4 0
BBX 3 6 1 -1
BITMAP
A0
C0
C0
C0
A0
20
ENDCHAR
STARTCHAR 049C
ENCODING 1180
SWIDTH 600 0
DWIDTH 5 0
BBX 4 7 1 0
BITMAP
A0
A0
C0
C0
A0
A0
90
ENDCHAR
STARTCHAR 049D
ENCODING 1181
SWIDTH 480 0
DWIDTH 4 0
BBX 3 5 1 0
BITMAP
A0
C0
C0
C0
A0
ENDCHAR
STARTCHAR 04A0
ENCODING 1184
SWIDTH 600 0
DWIDTH 5 0
BBX 6 7 -2 0
BITMAP
E4
28
28
18
28
24
24
ENDCHAR
STARTCHAR 04A1
ENCODING 1185
SWIDTH 480 0
DWIDTH 4 0
BBX 5 5 -1 0
BITMAP
D0
50
70
50
48
ENDCHAR
STARTCHAR 04A2
ENCODING 1186
SWIDTH 720 0
DWIDTH 6 0
BBX 5 8 1 -1
BITMAP
90
90
90
F0
90
90
88
08
ENDCHAR
STARTCHAR 04A3
ENCODING 1187
SWIDTH 600 0
DWIDTH 5 0
BBX 3 6 1 -1
BITMAP
A0
A0
E0
A0
A0
20
ENDCHAR
STARTCHAR 04AA
ENCODING 1194
SWIDTH 720 0
DWIDTH 6 0
BBX 5 9 0 -2
BITMAP
38
48
80
80
80
88
48
30
10
ENDCHAR
STARTCHAR 04AB
ENCODING 1195
SWIDTH 480 0
DWIDTH 4 0
BBX 4 7 0 -2
BITMAP
60
90
80
80
90
60
20
ENDCHAR
STARTCHAR 04AE
ENCODING 1198
SWIDTH 720 0
DWIDTH 6 0
BBX 5 7 0 0
BITMAP
88
48
50
30
20
20
20
ENDCHAR
STARTCHAR 04AF
ENCODING 1199
SWIDTH 480 0
DWIDTH 4 0
BBX 4 6 0 -2
BITMAP
90
90
60
60
20
40
ENDCHAR
STARTCHAR 04B0
ENCODING 1200
SWIDTH 720 0
DWIDTH 6 0
BBX 5 7 0 0
BITMAP
88
48
50
30
20
70
20
ENDCHAR
STARTCHAR 04B1
ENCODING 1201
SWIDTH 480 0
DWIDTH 4 0
BBX 4 6 0 -2
BITMAP
90
90
60
60
20
40
ENDCHAR
STARTCHAR 04B2
ENCODING 1202
SWIDTH 720 0
DWIDTH 6 0
BBX 6 8 0 -1
BITMAP
48
50
30
20
30
50
8C
04
ENDCHAR
STARTCHAR 04B3
ENCODING 1203
SWIDTH 480 0
DWIDTH 4 0
BBX 4 6 0 -1
BITMAP
90
60
40
60
90
10
ENDCHAR
STARTCHAR 04B6
ENCODING 1206
SWIDTH 720 0
DWIDTH 6 0
BBX 5 8 1 -1
BITMAP
10
10
10
90
F0
10
18
08
ENDCHAR
STARTCHAR 04B7
ENCODING 1207
SWIDTH 480 0
DWIDTH 4 0
BBX 4 6 0 -1
BITMAP
90
90
90
70
10
10
ENDCHAR
STARTCHAR 04B8
ENCODING 1208
SWIDTH 720 0
DWIDTH 6 0
BBX 4 7 1 0
BITMAP
10
10
50
D0
70
10
10
ENDCHAR
STARTCHAR 04B9
ENCODING 1209
SWIDTH 480 0
DWIDTH 4 0
BBX 4 5 0 0
BITMAP
90
90
D0
30
10
ENDCHAR
STARTCHAR 04BA
ENCODING 1210
SWIDTH 720 0
DWIDTH 6 0
BBX 3 5 2 2
BITMAP
C0
20
20
20
20
ENDCHAR
STARTCHAR 04BB
ENCODING 1211
SWIDTH 600 0
DWIDTH 5 0
BBX 3 7 1 0
BITMAP
80
80
E0
A0
A0
A0
A0
ENDCHAR
STARTCHAR 04C0
ENCODING 1216
SWIDTH 240 0
DWIDTH 2 0
BBX 1 7 1 0
BITMAP
80
80
80
80
80
80
80
ENDCHAR
STARTCHAR 04CB
ENCODING 1227
SWIDTH 720 0
DWIDTH 6 0
BBX 5 8 0 -1
BITMAP
88
88
88
88
78
08
08
08
ENDCHAR
STARTCHAR 04CC
ENCODING 1228
SWIDTH 480 0
DWIDTH 4 0
BBX 4 6 0 -1
BITMAP
90
90
70
10
10
20
ENDCHAR
STARTCHAR 04CF
ENCODING 1231
SWIDTH 240 0
DWIDTH 2 0
BBX 1 7 1 0
BITMAP
80
80
80
80
80
80
80
ENDCHAR
STARTCHAR 04D8
ENCODING 1240
SWIDTH 720 0
DWIDTH 6 0
BBX 6 7 0 0
BITMAP
38
44
04
FC
84
44
38
ENDCHAR
STARTCHAR 04D9
ENCODING 1241
SWIDTH 600 0
DWIDTH 5 0
BBX 4 5 0 0
BITMAP
70
90
F0
90
70
ENDCHAR
STARTCHAR 04E2
ENCODING 1250
SWIDTH 720 0
DWIDTH 6 0
BBX 4 8 1 0
BITMAP
60
90
90
B0
D0
D0
90
90
ENDCHAR
STARTCHAR 04E3
ENCODING 1251
SWIDTH 600 0
DWIDTH 5 0
BBX 3 7 1 0
BITMAP
C0
00
A0
A0
E0
A0
A0
ENDCHAR
STARTCHAR 04E8
ENCODING 1256
SWIDTH 720 0
DWIDTH 6 0
BBX 6 7 0 0
BITMAP
38
44
84
FC
84
44
38
ENDCHAR
STARTCHAR 04E9
ENCODING 1257
SWIDTH 600 0
DWIDTH 5 0
BBX 4 5 0 0
BITMAP
70
90
F0
90
70
ENDCHAR
STARTCHAR 04EE
ENCODING 1262
SWIDTH 600 0
DWIDTH 5 0
BBX 5 9 0 0
BITMAP
30
00
88
48
50
50
30
20
60
ENDCHAR
STARTCHAR 04EF
ENCODING 1263
SWIDTH 480 0
DWIDTH 4 0
BBX 4 9 0 -2
BITMAP
60
00
90
A0
60
60
40
40
C0
ENDCHAR
STARTCHAR 1E80
ENCODING 7808
SWIDTH 960 0
DWIDTH 8 0
BBX 8 9 0 0
BITMAP
10
00
91
9A
5A
6A
6A
66
24
ENDCHAR
STARTCHAR 1E81
ENCODING 7809
SWIDTH 720 0
DWIDTH 6 0
BBX 6 7 0 0
BITMAP
20
00
A4
B4
B8
58
48
ENDCHAR
STARTCHAR 1E82
ENCODING 7810
SWIDTH 960 0
DWIDTH 8 0
BBX 8 9 0 0
BITMAP
08
00
91
9A
5A
6A
6A
66
24
ENDCHAR
STARTCHAR 1E83
ENCODING 7811
SWIDTH 720 0
DWIDTH 6 0
BBX 6 7 0 0
BITMAP
10
00
A4
B4
B8
58
48
ENDCHAR
STARTCHAR 1E84
ENCODING 7812
SWIDTH 960 0
DWIDTH 8 0
BBX 8 9 0 0
BITMAP
18
00
91
9A
5A
6A
6A
66
24
ENDCHAR
STARTCHAR 1E85
ENCODING 7813
SWIDTH 720 0
DWIDTH 6 0
BBX 6 6 0 0
BITMAP
30
A4
B4
B8
58
48
ENDCHAR
STARTCHAR 1EF2
ENCODING 7922
SWIDTH 720 0
DWIDTH 6 0
BBX 5 9 0 0
BITMAP
20
00
88
48
50
30
20
20
20
ENDCHAR
STARTCHAR 1EF3
ENCODING 7923
SWIDTH 480 0
DWIDTH 4 0
BBX 4 9 0 -2
BITMAP
40
00
90
A0
60
60
40
40
C0
ENDCHAR
STARTCHAR 2002
ENCODING 8194
SWIDTH 480 0
DWIDTH 4 0
BBX 0 0 0 0
BITMAP
ENDCHAR
STARTCHAR 2013
ENCODING 8211
SWIDTH 600 0
DWIDTH 5 0
BBX 5 1 0 2
BITMAP
F8
ENDCHAR
STARTCHAR 2014
ENCODING 8212
SWIDTH 960 0
DWIDTH 8 0
BBX 8 1 0 2
BITMAP
FF
ENDCHAR
STARTCHAR 2015
ENCODING 8213
SWIDTH 960 0
DWIDTH 8 0
BBX 8 1 0 2
BITMAP
FF
ENDCHAR
STARTCHAR 2017
ENCODING 8215
SWIDTH 600 0
DWIDTH 5 0
BBX 3 1 1 -2
BITMAP
E0
ENDCHAR
STARTCHAR 2018
ENCODING 8216
SWIDTH 240 0
DWIDTH 2 0
BBX 1 1 0 5
BITMAP
80
ENDCHAR
STARTCHAR 2019
ENCODING 8217
SWIDTH 240 0
DWIDTH 2 0
BBX 1 1 0 5
BITMAP
80
ENDCHAR
STARTCHAR 201A
ENCODING 8218
SWIDTH 240 0
DWIDTH 2 0
BBX 0 0 0 -1
BITMAP
ENDCHAR
STARTCHAR 201B
ENCODING 8219
SWIDTH 240 0
DWIDTH 2 0
BBX 1 1 0 5
BITMAP
80
ENDCHAR
STARTCHAR 201C
ENCODING 8220
SWIDTH 360 0
DWIDTH 3 0
BBX 2 1 0 5
BITMAP
C0
ENDCHAR
STARTCHAR 201D
ENCODING 8221
SWIDTH 360 0
DWIDTH 3 0
BBX 3 1 0 4
BITMAP
A0
ENDCHAR
STARTCHAR 201E
ENCODING 8222
SWIDTH 360 0
DWIDTH 3 0
BBX 1 1 0 -1
BITMAP
80
ENDCHAR
STARTCHAR 2020
ENCODING 8224
SWIDTH 600 0
DWIDTH 5 0
BBX 4 8 0 -2
BITMAP
20
20
F0
20
20
20
20
20
ENDCHAR
STARTCHAR 2021
ENCODING 8225
SWIDTH 600 0
DWIDTH 5 0
BBX 4 7 0 -1
BITMAP
20
20
F0
20
20
F0
20
ENDCHAR
STARTCHAR 2022
ENCODING 8226
SWIDTH 360 0
DWIDTH 3 0
BBX 1 2 1 2
BITMAP
80
80
ENDCHAR
STARTCHAR 2026
ENCODING 8230
SWIDTH 960 0
DWIDTH 8 0
BBX 6 1 1 0
BITMAP
94
ENDCHAR
STARTCHAR 2030
ENCODING 8240
SWIDTH 960 0
DWIDTH 8 0
BBX 8 7 0 0
BITMAP
D0
B0
E0
20
3B
6D
5B
ENDCHAR
STARTCHAR 2032
ENCODING 8242
SWIDTH 240 0
DWIDTH 2 0
BBX 1 2 0 4
BITMAP
80
80
ENDCHAR
STARTCHAR 2033
ENCODING 8243
SWIDTH 360 0
DWIDTH 3 0
BBX 3 3 0 3
BITMAP
20
C0
80
ENDCHAR
STARTCHAR 2039
ENCODING 8249
SWIDTH 360 0
DWIDTH 3 0
BBX 1 2 1 2
BITMAP
80
80
ENDCHAR
STARTCHAR 203A
ENCODING 8250
SWIDTH 360 0
DWIDTH 3 0
BBX 1 2 1 2
BITMAP
80
80
ENDCHAR
STARTCHAR 203C
ENCODING 8252
SWIDTH 480 0
DWIDTH 4 0
BBX 3 7 1 0
BITMAP
A0
A0
A0
A0
A0
20
A0
ENDCHAR
STARTCHAR 203E
ENCODING 8254
SWIDTH 360 0
DWIDTH 3 0
BBX 3 1 0 7
BITMAP
E0
ENDCHAR
STARTCHAR 2044
ENCODING 8260
SWIDTH 240 0
DWIDTH 2 0
BBX 4 6 -1 0
BITMAP
10
20
20
40
80
80
ENDCHAR
STARTCHAR 2070
ENCODING 8304
SWIDTH 360 0
DWIDTH 3 0
BBX 3 4 0 2
BITMAP
C0
A0
A0
C0
ENDCHAR
STARTCHAR 2074
ENCODING 8308
SWIDTH 360 0
DWIDTH 3 0
BBX 2 2 0 3
BITMAP
C0
C0
ENDCHAR
STARTCHAR 2075
ENCODING 8309
SWIDTH 360 0
DWIDTH 3 0
BBX 3 3 0 3
BITMAP
80
C0
E0
ENDCHAR
STARTCHAR 2076
ENCODING 8310
SWIDTH 360 0
DWIDTH 3 0
BBX 3 3 0 3
BITMAP
C0
80
E0
ENDCHAR
STARTCHAR 2077
ENCODING 8311
SWIDTH 360 0
DWIDTH 3 0
BBX 3 3 0 2
BITMAP
60
40
80
ENDCHAR
STARTCHAR 2078
ENCODING 8312
SWIDTH 360 0
DWIDTH 3 0
BBX 3 3 0 3
BITMAP
C0
C0
E0
ENDCHAR
STARTCHAR 2079
ENCODING 8313
SWIDTH 360 0
DWIDTH 3 0
BBX 3 3 0 3
BITMAP
C0
A0
60
ENDCHAR
STARTCHAR 207F
ENCODING 8319
SWIDTH 360 0
DWIDTH 3 0
BBX 3 3 0 2
BITMAP
E0
A0
A0
ENDCHAR
STARTCHAR 20A3
ENCODING 8355
SWIDTH 600 0
DWIDTH 5 0
BBX 5 7 0 0
BITMAP
F0
80
B8
E0
A0
A0
A0
ENDCHAR
STARTCHAR 20A4
ENCODING 8356
SWIDTH 600 0
DWIDTH 5 0
BBX 4 7 0 0
BITMAP
70
90
80
40
40
40
F0
ENDCHAR
STARTCHAR 20A7
ENCODING 8359
SWIDTH 1080 0
DWIDTH 9 0
BBX 7 7 1 0
BITMAP
C0
A0
A0
D0
94
92
96
ENDCHAR
STARTCHAR 20AC
ENCODING 8364
SWIDTH 600 0
DWIDTH 5 0
BBX 4 6 0 0
BITMAP
30
40
F0
E0
40
70
ENDCHAR
STARTCHAR 20AF
ENCODING 8367
SWIDTH 960 0
DWIDTH 8 0
BBX 7 6 0 -1
BITMAP
F0
CE
5A
5A
AC
48
ENDCHAR
STARTCHAR 20DD
ENCODING 8413
SWIDTH 960 0
DWIDTH 8 0
BBX 6 6 1 0
BITMAP
38
C4
84
84
84
78
ENDCHAR
STARTCHAR 2105
ENCODING 8453
SWIDTH 840 0
DWIDTH 7 0
BBX 7 6 0 0
BITMAP
60
88
74
1A
2A
2E
ENDCHAR
STARTCHAR 210F
ENCODING 8463
SWIDTH 600 0
DWIDTH 5 0
BBX 4 6 0 0
BITMAP
60
20
50
70
50
90
ENDCHAR
STARTCHAR 2111
ENCODING 8465
SWIDTH 720 0
DWIDTH 6 0
BBX 4 7 1 -1
BITMAP
E0
A0
90
B0
20
90
60
ENDCHAR
STARTCHAR 2112
ENCODING 8466
SWIDTH 840 0
DWIDTH 7 0
BBX 6 6 0 0
BITMAP
4C
4C
48
30
10
FC
ENDCHAR
STARTCHAR 2113
ENCODING 8467
SWIDTH 360 0
DWIDTH 3 0
BBX 3 7 0 0
BITMAP
60
60
C0
40
80
80
C0
ENDCHAR
STARTCHAR 2116
ENCODING 8470
SWIDTH 1080 0
DWIDTH 9 0
BBX 9 7 0 0
BITMAP
9300
D500
D480
B500
B300
9000
9780
ENDCHAR
STARTCHAR 2118
ENCODING 8472
SWIDTH 600 0
DWIDTH 5 0
BBX 4 4 1 -1
BITMAP
F0
90
E0
80
ENDCHAR
STARTCHAR 211C
ENCODING 8476
SWIDTH 720 0
DWIDTH 6 0
BBX 5 5 1 0
BITMAP
F0
D0
F0
50
D8
ENDCHAR
STARTCHAR 211E
ENCODING 8478
SWIDTH 720 0
DWIDTH 6 0
BBX 4 6 1 0
BITMAP
E0
90
90
E0
90
90
ENDCHAR
STARTCHAR 2120
ENCODING 8480
SWIDTH 600 0
DWIDTH 5 0
BBX 5 2 0 3
BITMAP
A8
F8
ENDCHAR
STARTCHAR 2122
ENCODING 8482
SWIDTH 960 0
DWIDTH 8 0
BBX 7 4 1 3
BITMAP
52
92
9E
12
ENDCHAR
STARTCHAR 2126
ENCODING 8486
SWIDTH 720 0
DWIDTH 6 0
BBX 6 7 0 0
BITMAP
38
44
84
84
84
48
EC
ENDCHAR
STARTCHAR 2128
ENCODING 8488
SWIDTH 600 0
DWIDTH 5 0
BBX 4 7 1 -1
BITMAP
60
90
20
40
B0
10
F0
ENDCHAR
STARTCHAR 212D
ENCODING 8493
SWIDTH 720 0
DWIDTH 6 0
BBX 5 7 0 -1
BITMAP
68
B0
90
90
D0
40
38
ENDCHAR
STARTCHAR 212E
ENCODING 8494
SWIDTH 600 0
DWIDTH 5 0
BBX 4 5 0 0
BITMAP
70
90
E0
80
70
ENDCHAR
STARTCHAR 212F
ENCODING 8495
SWIDTH 480 0
DWIDTH 4 0
BBX 4 4 0 0
BITMAP
70
60
80
60
ENDCHAR
STARTCHAR 2135
ENCODING 8501
SWIDTH 480 0
DWIDTH 4 0
BBX 4 5 0 0
BITMAP
B0
60
A0
E0
D0
ENDCHAR
STARTCHAR 2136
ENCODING 8502
SWIDTH 480 0
DWIDTH 4 0
BBX 4 5 0 0
BITMAP
80
E0
10
20
F0
ENDCHAR
STARTCHAR 2137
ENCODING 8503
SWIDTH 360 0
DWIDTH 3 0
BBX 2 5 1 0
BITMAP
80
80
80
80
C0
ENDCHAR
STARTCHAR 215B
ENCODING 8539
SWIDTH 840 0
DWIDTH 7 0
BBX 7 6 0 0
BITMAP
C8
50
5C
2C
2A
4C
ENDCHAR
STARTCHAR 215C
ENCODING 8540
SWIDTH 840 0
DWIDTH 7 0
BBX 7 6 0 0
BITMAP
E0
28
30
6E
2C
0E
ENDCHAR
STARTCHAR 215D
ENCODING 8541
SWIDTH 840 0
DWIDTH 7 0
BBX 7 6 0 0
BITMAP
40
C8
30
6E
2C
0E
ENDCHAR
STARTCHAR 215E
ENCODING 8542
SWIDTH 840 0
DWIDTH 7 0
BBX 5 6 1 0
BITMAP
D0
A0
A0
58
98
98
ENDCHAR
STARTCHAR 2190
ENCODING 8592
SWIDTH 960 0
DWIDTH 8 0
BBX 7 3 1 1
BITMAP
80
FE
40
ENDCHAR
STARTCHAR 2191
ENCODING 8593
SWIDTH 480 0
DWIDTH 4 0
BBX 2 6 1 -1
BITMAP
80
C0
80
80
80
80
ENDCHAR
STARTCHAR 2192
ENCODING 8594
SWIDTH 960 0
DWIDTH 8 0
BBX 6 2 1 1
BITMAP
04
FC
ENDCHAR
STARTCHAR 2193
ENCODING 8595
SWIDTH 480 0
DWIDTH 4 0
BBX 2 6 1 -1
BITMAP
80
80
80
80
80
C0
ENDCHAR
STARTCHAR 2194
ENCODING 8596
SWIDTH 960 0
DWIDTH 8 0
BBX 6 3 1 1
BITMAP
48
FC
08
ENDCHAR
STARTCHAR 2195
ENCODING 8597
SWIDTH 480 0
DWIDTH 4 0
BBX 2 5 1 1
BITMAP
C0
80
80
80
C0
ENDCHAR
STARTCHAR 2196
ENCODING 8598
SWIDTH 720 0
DWIDTH 6 0
BBX 5 5 0 1
BITMAP
E0
40
20
10
08
ENDCHAR
STARTCHAR 2197
ENCODING 8599
SWIDTH 720 0
DWIDTH 6 0
BBX 6 5 0 1
BITMAP
1C
18
20
40
80
ENDCHAR
STARTCHAR 2198
ENCODING 8600
SWIDTH 720 0
DWIDTH 6 0
BBX 6 5 0 1
BITMAP
80
40
20
10
1C
ENDCHAR
STARTCHAR 2199
ENCODING 8601
SWIDTH 720 0
DWIDTH 6 0
BBX 5 5 0 1
BITMAP
08
10
20
40
E0
ENDCHAR
STARTCHAR 21A8
ENCODING 8616
SWIDTH 480 0
DWIDTH 4 0
BBX 2 5 1 -1
BITMAP
C0
80
80
80
C0
ENDCHAR
STARTCHAR 21B5
ENCODING 8629
SWIDTH 960 0
DWIDTH 8 0
BBX 6 3 1 1
BITMAP
44
FC
20
ENDCHAR
STARTCHAR 21C4
ENCODING 8644
SWIDTH 960 0
DWIDTH 8 0
BBX 6 5 1 0
BITMAP
08
74
48
B0
40
ENDCHAR
STARTCHAR 21C6
ENCODING 8646
SWIDTH 960 0
DWIDTH 8 0
BBX 6 5 1 0
BITMAP
40
B8
08
74
08
ENDCHAR
STARTCHAR 21D0
ENCODING 8656
SWIDTH 720 0
DWIDTH 6 0
BBX 5 3 0 1
BITMAP
40
B8
78
ENDCHAR
STARTCHAR 21D1
ENCODING 8657
SWIDTH 720 0
DWIDTH 6 0
BBX 4 4 1 0
BITMAP
60
90
A0
A0
ENDCHAR
STARTCHAR 21D2
ENCODING 8658
SWIDTH 720 0
DWIDTH 6 0
BBX 5 3 1 1
BITMAP
10
E8
F0
ENDCHAR
STARTCHAR 21D3
ENCODING 8659
SWIDTH 720 0
DWIDTH 6 0
BBX 3 4 1 1
BITMAP
A0
A0
A0
40
ENDCHAR
STARTCHAR 21D4
ENCODING 8660
SWIDTH 720 0
DWIDTH 6 0
BBX 6 3 0 1
BITMAP
48
B4
78
ENDCHAR
STARTCHAR 21D5
ENCODING 8661
SWIDTH 720 0
DWIDTH 6 0
BBX 3 5 2 1
BITMAP
C0
C0
C0
C0
E0
ENDCHAR
STARTCHAR 2200
ENCODING 8704
SWIDTH 600 0
DWIDTH 5 0
BBX 5 5 0 0
BITMAP
88
90
70
60
20
ENDCHAR
STARTCHAR 2202
ENCODING 8706
SWIDTH 480 0
DWIDTH 4 0
BBX 4 6 0 0
BITMAP
60
10
10
F0
90
E0
ENDCHAR
STARTCHAR 2203
ENCODING 8707
SWIDTH 480 0
DWIDTH 4 0
BBX 3 5 0 0
BITMAP
E0
20
E0
20
E0
ENDCHAR
STARTCHAR 2205
ENCODING 8709
SWIDTH 960 0
DWIDTH 8 0
BBX 6 6 1 0
BITMAP
38
CC
94
A4
44
B8
ENDCHAR
STARTCHAR 2206
ENCODING 8710
SWIDTH 600 0
DWIDTH 5 0
BBX 5 5 0 0
BITMAP
20
50
50
90
F8
ENDCHAR
STARTCHAR 2207
ENCODING 8711
SWIDTH 720 0
DWIDTH 6 0
BBX 4 5 1 0
BITMAP
F0
90
90
60
60
ENDCHAR
STARTCHAR 2208
ENCODING 8712
SWIDTH 960 0
DWIDTH 8 0
BBX 4 4 2 0
BITMAP
F0
F0
80
F0
ENDCHAR
STARTCHAR 2209
ENCODING 8713
SWIDTH 960 0
DWIDTH 8 0
BBX 4 4 2 0
BITMAP
F0
F0
C0
F0
ENDCHAR
STARTCHAR 220B
ENCODING 8715
SWIDTH 960 0
DWIDTH 8 0
BBX 4 4 2 0
BITMAP
F0
F0
10
F0
ENDCHAR
STARTCHAR 220D
ENCODING 8717
SWIDTH 480 0
DWIDTH 4 0
BBX 2 4 2 0
BITMAP
C0
40
C0
C0
ENDCHAR
STARTCHAR 220F
ENCODING 8719
SWIDTH 960 0
DWIDTH 8 0
BBX 6 8 1 -2
BITMAP
FC
48
48
48
48
48
48
CC
ENDCHAR
STARTCHAR 2211
ENCODING 8721
SWIDTH 960 0
DWIDTH 8 0
BBX 4 7 2 -1
BITMAP
F0
90
40
40
40
90
F0
ENDCHAR
STARTCHAR 2212
ENCODING 8722
SWIDTH 600 0
DWIDTH 5 0
BBX 5 1 0 1
BITMAP
F8
ENDCHAR
STARTCHAR 2213
ENCODING 8723
SWIDTH 960 0
DWIDTH 8 0
BBX 4 5 2 0
BITMAP
F0
00
40
F0
40
ENDCHAR
STARTCHAR 2215
ENCODING 8725
SWIDTH 240 0
DWIDTH 2 0
BBX 4 6 -1 0
BITMAP
10
20
20
40
80
80
ENDCHAR
STARTCHAR 2217
ENCODING 8727
SWIDTH 960 0
DWIDTH 8 0
BBX 1 2 3 1
BITMAP
80
80
ENDCHAR
STARTCHAR 2219
ENCODING 8729
SWIDTH 240 0
DWIDTH 2 0
BBX 1 1 1 2
BITMAP
80
ENDCHAR
STARTCHAR 221A
ENCODING 8730
SWIDTH 480 0
DWIDTH 4 0
BBX 4 7 0 1
BITMAP
10
10
20
A0
60
60
20
ENDCHAR
STARTCHAR 221D
ENCODING 8733
SWIDTH 960 0
DWIDTH 8 0
BBX 4 2 2 1
BITMAP
F0
F0
ENDCHAR
STARTCHAR 221E
ENCODING 8734
SWIDTH 720 0
DWIDTH 6 0
BBX 6 2 0 1
BITMAP
FC
FC
ENDCHAR
STARTCHAR 221F
ENCODING 8735
SWIDTH 960 0
DWIDTH 8 0
BBX 8 7 0 0
BITMAP
80
80
80
80
80
80
FF
ENDCHAR
STARTCHAR 2220
ENCODING 8736
SWIDTH 960 0
DWIDTH 8 0
BBX 4 3 2 0
BITMAP
20
40
F0
ENDCHAR
STARTCHAR 2223
ENCODING 8739
SWIDTH 720 0
DWIDTH 6 0
BBX 1 8 2 -2
BITMAP
80
80
80
80
80
80
80
80
ENDCHAR
STARTCHAR 2225
ENCODING 8741
SWIDTH 720 0
DWIDTH 6 0
BBX 2 9 2 -2
BITMAP
C0
C0
C0
C0
C0
C0
C0
C0
C0
ENDCHAR
STARTCHAR 2227
ENCODING 8743
SWIDTH 960 0
DWIDTH 8 0
BBX 4 4 2 0
BITMAP
20
60
90
90
ENDCHAR
STARTCHAR 2228
ENCODING 8744
SWIDTH 960 0
DWIDTH 8 0
BBX 4 4 2 0
BITMAP
90
90
60
20
ENDCHAR
STARTCHAR 2229
ENCODING 8745
SWIDTH 720 0
DWIDTH 6 0
BBX 4 5 1 0
BITMAP
60
90
90
90
90
ENDCHAR
STARTCHAR 222A
ENCODING 8746
SWIDTH 720 0
DWIDTH 6 0
BBX 4 5 1 0
BITMAP
90
90
90
90
60
ENDCHAR
STARTCHAR 222B
ENCODING 8747
SWIDTH 240 0
DWIDTH 2 0
BBX 2 9 0 -1
BITMAP
40
80
80
40
40
40
40
80
80
ENDCHAR
STARTCHAR 222E
ENCODING 8750
SWIDTH 960 0
DWIDTH 8 0
BBX 4 10 2 -2
BITMAP
70
40
40
40
B0
B0
60
20
20
40
ENDCHAR
STARTCHAR 2234
ENCODING 8756
SWIDTH 960 0
DWIDTH 8 0
BBX 5 5 2 0
BITMAP
20
00
00
00
88
ENDCHAR
STARTCHAR 2235
ENCODING 8757
SWIDTH 960 0
DWIDTH 8 0
BBX 5 5 2 0
BITMAP
88
00
00
00
20
ENDCHAR
STARTCHAR 2237
ENCODING 8759
SWIDTH 960 0
DWIDTH 8 0
BBX 5 5 2 0
BITMAP
88
00
00
00
88
ENDCHAR
STARTCHAR 2245
ENCODING 8773
SWIDTH 960 0
DWIDTH 8 0
BBX 3 2 3 1
BITMAP
E0
C0
ENDCHAR
STARTCHAR 2248
ENCODING 8776
SWIDTH 600 0
DWIDTH 5 0
BBX 3 3 1 0
BITMAP
E0
80
60
ENDCHAR
STARTCHAR 2260
ENCODING 8800
SWIDTH 600 0
DWIDTH 5 0
BBX 4 4 0 0
BITMAP
20
F0
F0
40
ENDCHAR
STARTCHAR 2261
ENCODING 8801
SWIDTH 600 0
DWIDTH 5 0
BBX 4 4 0 0
BITMAP
F0
00
F0
F0
ENDCHAR
STARTCHAR 2262
ENCODING 8802
SWIDTH 960 0
DWIDTH 8 0
BBX 4 4 2 1
BITMAP
F0
F0
40
F0
ENDCHAR
STARTCHAR 2264
ENCODING 8804
SWIDTH 600 0
DWIDTH 5 0
BBX 4 5 0 0
BITMAP
30
C0
60
10
F0
ENDCHAR
STARTCHAR 2265
ENCODING 8805
SWIDTH 600 0
DWIDTH 5 0
BBX 4 5 0 0
BITMAP
40
30
60
00
F0
ENDCHAR
STARTCHAR 226A
ENCODING 8810
SWIDTH 960 0
DWIDTH 8 0
BBX 5 5 2 0
BITMAP
08
38
F0
58
30
ENDCHAR
STARTCHAR 226B
ENCODING 8811
SWIDTH 960 0
DWIDTH 8 0
BBX 6 5 1 0
BITMAP
80
E0
7C
58
60
ENDCHAR
STARTCHAR 2282
ENCODING 8834
SWIDTH 960 0
DWIDTH 8 0
BBX 4 4 2 0
BITMAP
F0
80
80
F0
ENDCHAR
STARTCHAR 2283
ENCODING 8835
SWIDTH 960 0
DWIDTH 8 0
BBX 4 4 2 0
BITMAP
F0
10
10
F0
ENDCHAR
STARTCHAR 2284
ENCODING 8836
SWIDTH 960 0
DWIDTH 8 0
BBX 4 4 2 0
BITMAP
F0
A0
C0
F0
ENDCHAR
STARTCHAR 2285
ENCODING 8837
SWIDTH 960 0
DWIDTH 8 0
BBX 4 5 2 -1
BITMAP
80
F0
50
50
F0
ENDCHAR
STARTCHAR 2286
ENCODING 8838
SWIDTH 960 0
DWIDTH 8 0
BBX 4 5 2 0
BITMAP
F0
80
80
F0
60
ENDCHAR
STARTCHAR 2287
ENCODING 8839
SWIDTH 960 0
DWIDTH 8 0
BBX 4 5 2 0
BITMAP
F0
10
10
F0
60
ENDCHAR
STARTCHAR 2295
ENCODING 8853
SWIDTH 960 0
DWIDTH 8 0
BBX 6 6 1 0
BITMAP
78
A4
A4
FC
A4
78
ENDCHAR
STARTCHAR 2296
ENCODING 8854
SWIDTH 960 0
DWIDTH 8 0
BBX 6 6 1 0
BITMAP
38
C4
84
FC
84
78
ENDCHAR
STARTCHAR 2297
ENCODING 8855
SWIDTH 960 0
DWIDTH 8 0
BBX 6 6 1 0
BITMAP
38
4C
B4
B4
4C
38
ENDCHAR
STARTCHAR 2298
ENCODING 8856
SWIDTH 960 0
DWIDTH 8 0
BBX 6 6 1 0
BITMAP
38
CC
94
A4
44
78
ENDCHAR
STARTCHAR 2299
ENCODING 8857
SWIDTH 960 0
DWIDTH 8 0
BBX 6 6 1 0
BITMAP
38
C4
84
94
84
78
ENDCHAR
STARTCHAR 22A2
ENCODING 8866
SWIDTH 960 0
DWIDTH 8 0
BBX 5 1 2 2
BITMAP
F8
ENDCHAR
STARTCHAR 22A3
ENCODING 8867
SWIDTH 960 0
DWIDTH 8 0
BBX 5 5 2 0
BITMAP
08
08
F8
08
08
ENDCHAR
STARTCHAR 22A4
ENCODING 8868
SWIDTH 960 0
DWIDTH 8 0
BBX 4 5 2 0
BITMAP
F0
40
40
40
40
ENDCHAR
STARTCHAR 22A5
ENCODING 8869
SWIDTH 960 0
DWIDTH 8 0
BBX 5 4 2 1
BITMAP
40
40
40
F8
ENDCHAR
STARTCHAR 22BB
ENCODING 8891
SWIDTH 960 0
DWIDTH 8 0
BBX 4 7 2 -2
BITMAP
80
90
A0
60
20
00
F0
ENDCHAR
STARTCHAR 2302
ENCODING 8962
SWIDTH 600 0
DWIDTH 5 0
BBX 5 7 0 0
BITMAP
20
50
90
88
88
88
F8
ENDCHAR
STARTCHAR 2310
ENCODING 8976
SWIDTH 600 0
DWIDTH 5 0
BBX 5 2 0 1
BITMAP
F8
80
ENDCHAR
STARTCHAR 2320
ENCODING 8992
SWIDTH 600 0
DWIDTH 5 0
BBX 1 9 2 -1
BITMAP
80
80
80
80
80
80
80
80
80
ENDCHAR
STARTCHAR 2321
ENCODING 8993
SWIDTH 600 0
DWIDTH 5 0
BBX 1 9 2 -2
BITMAP
80
80
80
80
80
80
80
80
80
ENDCHAR
STARTCHAR 2329
ENCODING 9001
SWIDTH 360 0
DWIDTH 3 0
BBX 2 4 0 0
BITMAP
40
80
80
40
ENDCHAR
STARTCHAR 232A
ENCODING 9002
SWIDTH 360 0
DWIDTH 3 0
BBX 2 4 0 0
BITMAP
80
40
40
40
ENDCHAR
STARTCHAR 2500
ENCODING 9472
SWIDTH 960 0
DWIDTH 8 0
BBX 8 1 0 2
BITMAP
FF
ENDCHAR
STARTCHAR 2502
ENCODING 9474
SWIDTH 960 0
DWIDTH 8 0
BBX 1 8 3 -2
BITMAP
80
80
80
80
80
80
80
80
ENDCHAR
STARTCHAR 250C
ENCODING 9484
SWIDTH 960 0
DWIDTH 8 0
BBX 4 4 4 -2
BITMAP
F0
80
80
80
ENDCHAR
STARTCHAR 2510
ENCODING 9488
SWIDTH 960 0
DWIDTH 8 0
BBX 4 4 0 -2
BITMAP
F0
10
10
10
ENDCHAR
STARTCHAR 2514
ENCODING 9492
SWIDTH 960 0
DWIDTH 8 0
BBX 4 4 4 2
BITMAP
80
80
80
F0
ENDCHAR
STARTCHAR 2518
ENCODING 9496
SWIDTH 960 0
DWIDTH 8 0
BBX 4 4 0 2
BITMAP
10
10
10
F0
ENDCHAR
STARTCHAR 251C
ENCODING 9500
SWIDTH 960 0
DWIDTH 8 0
BBX 4 7 4 -2
BITMAP
80
80
80
F0
80
80
80
ENDCHAR
STARTCHAR 2524
ENCODING 9508
SWIDTH 960 0
DWIDTH 8 0
BBX 4 7 0 -2
BITMAP
10
10
10
F0
10
10
10
ENDCHAR
STARTCHAR 252C
ENCODING 9516
SWIDTH 960 0
DWIDTH 8 0
BBX 8 4 0 -2
BITMAP
FF
10
10
10
ENDCHAR
STARTCHAR 2534
ENCODING 9524
SWIDTH 960 0
DWIDTH 8 0
BBX 8 4 0 2
BITMAP
10
10
10
FF
ENDCHAR
STARTCHAR 253C
ENCODING 9532
SWIDTH 960 0
DWIDTH 8 0
BBX 8 7 0 -2
BITMAP
10
10
10
FF
10
10
10
ENDCHAR
STARTCHAR 2550
ENCODING 9552
SWIDTH 960 0
DWIDTH 8 0
BBX 8 2 0 1
BITMAP
FF
FF
ENDCHAR
STARTCHAR 2551
ENCODING 9553
SWIDTH 960 0
DWIDTH 8 0
BBX 2 8 3 -2
BITMAP
C0
C0
C0
C0
C0
C0
C0
C0
ENDCHAR
STARTCHAR 2552
ENCODING 9554
SWIDTH 960 0
DWIDTH 8 0
BBX 4 5 4 -2
BITMAP
F0
F0
80
80
80
ENDCHAR
STARTCHAR 2553
ENCODING 9555
SWIDTH 960 0
DWIDTH 8 0
BBX 5 5 3 -2
BITMAP
F8
C0
C0
C0
C0
ENDCHAR
STARTCHAR 2554
ENCODING 9556
SWIDTH 960 0
DWIDTH 8 0
BBX 5 5 3 -2
BITMAP
F8
F8
C0
C0
C0
ENDCHAR
STARTCHAR 2555
ENCODING 9557
SWIDTH 960 0
DWIDTH 8 0
BBX 4 5 0 -2
BITMAP
F0
F0
10
10
10
ENDCHAR
STARTCHAR 2556
ENCODING 9558
SWIDTH 960 0
DWIDTH 8 0
BBX 5 5 0 -2
BITMAP
F8
18
18
18
18
ENDCHAR
STARTCHAR 2557
ENCODING 9559
SWIDTH 960 0
DWIDTH 8 0
BBX 5 5 0 -2
BITMAP
F8
F8
18
18
18
ENDCHAR
STARTCHAR 2558
ENCODING 9560
SWIDTH 960 0
DWIDTH 8 0
BBX 4 5 4 1
BITMAP
80
80
80
F0
F0
ENDCHAR
STARTCHAR 2559
ENCODING 9561
SWIDTH 960 0
DWIDTH 8 0
BBX 5 4 3 2
BITMAP
C0
C0
C0
F8
ENDCHAR
STARTCHAR 255A
ENCODING 9562
SWIDTH 960 0
DWIDTH 8 0
BBX 5 5 3 1
BITMAP
C0
C0
C0
F8
F8
ENDCHAR
STARTCHAR 255B
ENCODING 9563
SWIDTH 960 0
DWIDTH 8 0
BBX 4 5 0 1
BITMAP
10
10
10
F0
F0
ENDCHAR
STARTCHAR 255C
ENCODING 9564
SWIDTH 960 0
DWIDTH 8 0
BBX 5 4 0 2
BITMAP
18
18
18
F8
ENDCHAR
STARTCHAR 255D
ENCODING 9565
SWIDTH 960 0
DWIDTH 8 0
BBX 5 5 0 1
BITMAP
18
18
18
F8
F8
ENDCHAR
STARTCHAR 255E
ENCODING 9566
SWIDTH 960 0
DWIDTH 8 0
BBX 4 8 4 -2
BITMAP
80
80
80
F0
F0
80
80
80
ENDCHAR
STARTCHAR 255F
ENCODING 9567
SWIDTH 960 0
DWIDTH 8 0
BBX 5 8 3 -2
BITMAP
C0
C0
C0
F8
C0
C0
C0
C0
ENDCHAR
STARTCHAR 2560
ENCODING 9568
SWIDTH 960 0
DWIDTH 8 0
BBX 5 8 3 -2
BITMAP
C0
C0
C0
F8
F8
C0
C0
C0
ENDCHAR
STARTCHAR 2561
ENCODING 9569
SWIDTH 960 0
DWIDTH 8 0
BBX 4 8 0 -2
BITMAP
10
10
10
F0
F0
10
10
10
ENDCHAR
STARTCHAR 2562
ENCODING 9570
SWIDTH 960 0
DWIDTH 8 0
BBX 5 8 0 -2
BITMAP
18
18
18
F8
18
18
18
18
ENDCHAR
STARTCHAR 2563
ENCODING 9571
SWIDTH 960 0
DWIDTH 8 0
BBX 5 8 0 -2
BITMAP
18
18
18
F8
F8
18
18
18
ENDCHAR
STARTCHAR 2564
ENCODING 9572
SWIDTH 960 0
DWIDTH 8 0
BBX 8 5 0 -2
BITMAP
FF
FF
10
10
10
ENDCHAR
STARTCHAR 2565
ENCODING 9573
SWIDTH 960 0
DWIDTH 8 0
BBX 8 5 0 -2
BITMAP
FF
18
18
18
18
ENDCHAR
STARTCHAR 2566
ENCODING 9574
SWIDTH 960 0
DWIDTH 8 0
BBX 8 5 0 -2
BITMAP
FF
FF
18
18
18
ENDCHAR
STARTCHAR 2567
ENCODING 9575
SWIDTH 960 0
DWIDTH 8 0
BBX 8 5 0 1
BITMAP
10
10
10
FF
FF
ENDCHAR
STARTCHAR 2568
ENCODING 9576
SWIDTH 960 0
DWIDTH 8 0
BBX 8 4 0 2
BITMAP
18
18
18
FF
ENDCHAR
STARTCHAR 2569
ENCODING 9577
SWIDTH 960 0
DWIDTH 8 0
BBX 8 5 0 1
BITMAP
18
18
18
FF
FF
ENDCHAR
STARTCHAR 256A
ENCODING 9578
SWIDTH 960 0
DWIDTH 8 0
BBX 8 8 0 -2
BITMAP
10
10
10
FF
FF
10
10
10
ENDCHAR
STARTCHAR 256B
ENCODING 9579
SWIDTH 960 0
DWIDTH 8 0
BBX 8 8 0 -2
BITMAP
18
18
18
FF
18
18
18
18
ENDCHAR
STARTCHAR 256C
ENCODING 9580
SWIDTH 960 0
DWIDTH 8 0
BBX 8 8 0 -2
BITMAP
18
18
18
FF
FF
18
18
18
ENDCHAR
STARTCHAR 256D
ENCODING 9581
SWIDTH 960 0
DWIDTH 8 0
BBX 4 4 4 -2
BITMAP
10
60
80
80
ENDCHAR
STARTCHAR 256E
ENCODING 9582
SWIDTH 960 0
DWIDTH 8 0
BBX 4 4 0 -2
BITMAP
80
60
10
10
ENDCHAR
STARTCHAR 256F
ENCODING 9583
SWIDTH 960 0
DWIDTH 8 0
BBX 4 4 0 2
BITMAP
10
10
10
E0
ENDCHAR
STARTCHAR 2570
ENCODING 9584
SWIDTH 960 0
DWIDTH 8 0
BBX 4 4 4 2
BITMAP
80
80
80
70
ENDCHAR
STARTCHAR 2580
ENCODING 9600
SWIDTH 960 0
DWIDTH 8 0
BBX 8 4 0 2
BITMAP
FF
FF
FF
FF
ENDCHAR
STARTCHAR 2584
ENCODING 9604
SWIDTH 960 0
DWIDTH 8 0
BBX 8 4 0 -2
BITMAP
FF
FF
FF
FF
ENDCHAR
STARTCHAR 2588
ENCODING 9608
SWIDTH 960 0
DWIDTH 8 0
BBX 8 8 0 -2
BITMAP
FF
FF
FF
FF
FF
FF
FF
FF
ENDCHAR
STARTCHAR 258C
ENCODING 9612
SWIDTH 960 0
DWIDTH 8 0
BBX 4 8 0 -2
BITMAP
F0
F0
F0
F0
F0
F0
F0
F0
ENDCHAR
STARTCHAR 2590
ENCODING 9616
SWIDTH 960 0
DWIDTH 8 0
BBX 4 8 4 -2
BITMAP
F0
F0
F0
F0
F0
F0
F0
F0
ENDCHAR
STARTCHAR 2591
ENCODING 9617
SWIDTH 960 0
DWIDTH 8 0
BBX 7 6 0 0
BITMAP
D2
00
00
D2
00
D2
ENDCHAR
STARTCHAR 2592
ENCODING 9618
SWIDTH 960 0
DWIDTH 8 0
BBX 8 8 0 -2
BITMAP
92
6D
6D
92
6D
92
92
6D
ENDCHAR
STARTCHAR 2593
ENCODING 9619
SWIDTH 960 0
DWIDTH 8 0
BBX 8 8 0 -2
BITMAP
FF
92
92
FF
92
FF
92
92
ENDCHAR
STARTCHAR 25A0
ENCODING 9632
SWIDTH 600 0
DWIDTH 5 0
BBX 7 7 -1 0
BITMAP
FE
FE
FE
FE
FE
FE
FE
ENDCHAR
STARTCHAR 25A1
ENCODING 9633
SWIDTH 600 0
DWIDTH 5 0
BBX 5 4 0 0
BITMAP
F8
88
88
F8
ENDCHAR
STARTCHAR 25AA
ENCODING 9642
SWIDTH 360 0
DWIDTH 3 0
BBX 3 2 0 1
BITMAP
E0
E0
ENDCHAR
STARTCHAR 25AB
ENCODING 9643
SWIDTH 360 0
DWIDTH 3 0
BBX 3 2 0 1
BITMAP
E0
E0
ENDCHAR
STARTCHAR 25AC
ENCODING 9644
SWIDTH 960 0
DWIDTH 8 0
BBX 6 3 1 0
BITMAP
FC
FC
FC
ENDCHAR
STARTCHAR 25B2
ENCODING 9650
SWIDTH 960 0
DWIDTH 8 0
BBX 4 4 2 1
BITMAP
40
60
70
F0
ENDCHAR
STARTCHAR 25B5
ENCODING 9653
SWIDTH 720 0
DWIDTH 6 0
BBX 3 3 1 1
BITMAP
40
60
A0
ENDCHAR
STARTCHAR 25B9
ENCODING 9657
SWIDTH 720 0
DWIDTH 6 0
BBX 3 4 1 0
BITMAP
C0
A0
C0
80
ENDCHAR
STARTCHAR 25BA
ENCODING 9658
SWIDTH 960 0
DWIDTH 8 0
BBX 4 3 2 2
BITMAP
80
F0
C0
ENDCHAR
STARTCHAR 25BC
ENCODING 9660
SWIDTH 960 0
DWIDTH 8 0
BBX 4 4 2 0
BITMAP
F0
F0
60
60
ENDCHAR
STARTCHAR 25BF
ENCODING 9663
SWIDTH 720 0
DWIDTH 6 0
BBX 4 3 1 0
BITMAP
F0
A0
60
ENDCHAR
STARTCHAR 25C3
ENCODING 9667
SWIDTH 720 0
DWIDTH 6 0
BBX 3 4 2 0
BITMAP
60
A0
60
20
ENDCHAR
STARTCHAR 25C4
ENCODING 9668
SWIDTH 960 0
DWIDTH 8 0
BBX 4 3 2 2
BITMAP
10
F0
30
ENDCHAR
STARTCHAR 25C6
ENCODING 9670
SWIDTH 960 0
DWIDTH 8 0
BBX 4 4 2 0
BITMAP
20
70
F0
60
ENDCHAR
STARTCHAR 25C7
ENCODING 9671
SWIDTH 960 0
DWIDTH 8 0
BBX 4 5 2 1
BITMAP
E0
90
90
90
60
ENDCHAR
STARTCHAR 25CA
ENCODING 9674
SWIDTH 480 0
DWIDTH 4 0
BBX 4 6 0 0
BITMAP
60
A0
90
A0
A0
40
ENDCHAR
STARTCHAR 25CB
ENCODING 9675
SWIDTH 600 0
DWIDTH 5 0
BBX 5 4 0 1
BITMAP
F0
88
88
F0
ENDCHAR
STARTCHAR 25CF
ENCODING 9679
SWIDTH 600 0
DWIDTH 5 0
BBX 5 4 0 0
BITMAP
70
F8
F8
70
ENDCHAR
STARTCHAR 25D8
ENCODING 9688
SWIDTH 600 0
DWIDTH 5 0
BBX 5 5 0 0
BITMAP
F8
F8
88
F8
F8
ENDCHAR
STARTCHAR 25D9
ENCODING 9689
SWIDTH 600 0
DWIDTH 5 0
BBX 7 7 -1 0
BITMAP
FE
FE
BA
BA
FE
EE
FE
ENDCHAR
STARTCHAR 25E6
ENCODING 9702
SWIDTH 480 0
DWIDTH 4 0
BBX 4 3 0 1
BITMAP
60
90
E0
ENDCHAR
STARTCHAR 263A
ENCODING 9786
SWIDTH 1080 0
DWIDTH 9 0
BBX 6 7 1 0
BITMAP
38
C4
AC
84
CC
B4
78
ENDCHAR
STARTCHAR 263B
ENCODING 9787
SWIDTH 1080 0
DWIDTH 9 0
BBX 6 7 1 0
BITMAP
38
7C
D4
BC
D4
6C
38
ENDCHAR
STARTCHAR 263C
ENCODING 9788
SWIDTH 960 0
DWIDTH 8 0
BBX 5 6 1 1
BITMAP
A0
58
88
88
78
20
ENDCHAR
STARTCHAR 2640
ENCODING 9792
SWIDTH 720 0
DWIDTH 6 0
BBX 3 6 2 1
BITMAP
C0
A0
C0
40
80
40
ENDCHAR
STARTCHAR 2642
ENCODING 9794
SWIDTH 720 0
DWIDTH 6 0
BBX 4 5 1 2
BITMAP
10
20
E0
A0
E0
ENDCHAR
STARTCHAR 2660
ENCODING 9824
SWIDTH 480 0
DWIDTH 4 0
BBX 5 6 0 0
BITMAP
20
70
F8
F8
70
70
ENDCHAR
STARTCHAR 2663
ENCODING 9827
SWIDTH 600 0
DWIDTH 5 0
BBX 6 7 0 0
BITMAP
30
70
F8
FC
DC
20
30
ENDCHAR
STARTCHAR 2665
ENCODING 9829
SWIDTH 600 0
DWIDTH 5 0
BBX 5 6 0 1
BITMAP
D8
F8
F8
70
20
20
ENDCHAR
STARTCHAR 2666
ENCODING 9830
SWIDTH 480 0
DWIDTH 4 0
BBX 4 6 0 0
BITMAP
20
60
F0
F0
60
20
ENDCHAR
STARTCHAR 266A
ENCODING 9834
SWIDTH 480 0
DWIDTH 4 0
BBX 4 5 0 2
BITMAP
20
50
50
40
C0
ENDCHAR
STARTCHAR 266B
ENCODING 9835
SWIDTH 720 0
DWIDTH 6 0
BBX 4 5 1 0
BITMAP
70
50
50
D0
90
ENDCHAR
STARTCHAR 301A
ENCODING 12314
SWIDTH 720 0
DWIDTH 6 0
BBX 1 7 2 -1
BITMAP
80
80
80
80
80
80
80
ENDCHAR
STARTCHAR 301B
ENCODING 12315
SWIDTH 720 0
DWIDTH 6 0
BBX 2 7 2 -1
BITMAP
C0
C0
C0
C0
C0
C0
C0
ENDCHAR
STARTCHAR EFBF
ENCODING 61375
SWIDTH 720 0
DWIDTH 6 0
BBX 6 7 0 0
BITMAP
04
08
88
90
A0
C0
40
ENDCHAR
STARTCHAR EFC0
ENCODING 61376
SWIDTH 720 0
DWIDTH 6 0
BBX 4 9 0 -2
BITMAP
30
30
30
30
30
30
30
30
F0
ENDCHAR
STARTCHAR EFC1
ENCODING 61377
SWIDTH 720 0
DWIDTH 6 0
BBX 4 9 0 -1
BITMAP
F0
30
30
30
30
30
30
30
30
ENDCHAR
STARTCHAR EFC2
ENCODING 61378
SWIDTH 720 0
DWIDTH 6 0
BBX 6 8 0 -2
BITMAP
FC
84
84
84
84
84
84
84
ENDCHAR
STARTCHAR EFC3
ENCODING 61379
SWIDTH 720 0
DWIDTH 6 0
BBX 6 8 0 -2
BITMAP
84
84
84
84
84
84
84
FC
ENDCHAR
STARTCHAR EFC4
ENCODING 61380
SWIDTH 720 0
DWIDTH 6 0
BBX 4 9 2 -2
BITMAP
C0
C0
C0
C0
C0
C0
C0
C0
F0
ENDCHAR
STARTCHAR EFC5
ENCODING 61381
SWIDTH 720 0
DWIDTH 6 0
BBX 4 9 2 -1
BITMAP
F0
C0
C0
C0
C0
C0
C0
C0
C0
ENDCHAR
STARTCHAR EFC6
ENCODING 61382
SWIDTH 720 0
DWIDTH 6 0
BBX 6 8 0 -2
BITMAP
78
88
84
84
84
84
84
84
ENDCHAR
STARTCHAR EFC7
ENCODING 61383
SWIDTH 720 0
DWIDTH 6 0
BBX 6 8 0 -2
BITMAP
84
84
84
84
84
84
88
78
ENDCHAR
STARTCHAR EFC8
ENCODING 61384
SWIDTH 720 0
DWIDTH 6 0
BBX 6 8 0 -2
BITMAP
84
84
84
84
84
84
84
84
ENDCHAR
STARTCHAR EFC9
ENCODING 61385
SWIDTH 720 0
DWIDTH 6 0
BBX 2 9 2 -2
BITMAP
C0
C0
C0
C0
C0
C0
C0
C0
C0
ENDCHAR
STARTCHAR EFCA
ENCODING 61386
SWIDTH 720 0
DWIDTH 6 0
BBX 3 4 1 0
BITMAP
40
60
A0
60
ENDCHAR
STARTCHAR EFCB
ENCODING 61387
SWIDTH 720 0
DWIDTH 6 0
BBX 6 3 0 1
BITMAP
FC
00
FC
ENDCHAR
STARTCHAR EFCC
ENCODING 61388
SWIDTH 720 0
DWIDTH 6 0
BBX 3 8 3 -2
BITMAP
20
40
40
80
80
80
40
20
ENDCHAR
STARTCHAR EFCD
ENCODING 61389
SWIDTH 720 0
DWIDTH 6 0
BBX 6 8 0 -2
BITMAP
80
40
40
20
10
10
08
04
ENDCHAR
STARTCHAR EFCE
ENCODING 61390
SWIDTH 720 0
DWIDTH 6 0
BBX 5 3 0 -2
BITMAP
08
08
F8
ENDCHAR
STARTCHAR EFCF
ENCODING 61391
SWIDTH 720 0
DWIDTH 6 0
BBX 3 8 0 -2
BITMAP
80
80
40
20
20
40
40
80
ENDCHAR
STARTCHAR EFD0
ENCODING 61392
SWIDTH 720 0
DWIDTH 6 0
BBX 5 3 0 5
BITMAP
F8
08
08
ENDCHAR
STARTCHAR EFD1
ENCODING 61393
SWIDTH 720 0
DWIDTH 6 0
BBX 6 8 0 -2
BITMAP
04
08
08
10
20
40
40
80
ENDCHAR
STARTCHAR EFD2
ENCODING 61394
SWIDTH 720 0
DWIDTH 6 0
BBX 6 9 0 -2
BITMAP
04
08
08
10
20
40
40
80
FC
ENDCHAR
STARTCHAR EFD3
ENCODING 61395
SWIDTH 720 0
DWIDTH 6 0
BBX 6 9 0 -2
BITMAP
FC
80
40
40
20
10
10
08
04
ENDCHAR
STARTCHAR EFD4
ENCODING 61396
SWIDTH 720 0
DWIDTH 6 0
BBX 4 8 1 -2
BITMAP
40
40
E0
D0
D0
60
40
40
ENDCHAR
STARTCHAR EFD5
ENCODING 61397
SWIDTH 600 0
DWIDTH 5 0
BBX 5 6 0 -2
BITMAP
38
40
40
80
80
80
ENDCHAR
STARTCHAR EFD6
ENCODING 61398
SWIDTH 960 0
DWIDTH 8 0
BBX 6 4 1 2
BITMAP
D4
94
AC
0C
ENDCHAR
STARTCHAR EFD7
ENCODING 61399
SWIDTH 960 0
DWIDTH 8 0
BBX 6 7 1 0
BITMAP
78
84
B4
C4
C4
B4
78
ENDCHAR
STARTCHAR EFD8
ENCODING 61400
SWIDTH 960 0
DWIDTH 8 0
BBX 6 7 1 0
BITMAP
78
84
B4
B4
B4
84
78
ENDCHAR
STARTCHAR EFD9
ENCODING 61401
SWIDTH 960 0
DWIDTH 8 0
BBX 8 4 0 2
BITMAP
E9
5B
55
6D
ENDCHAR
STARTCHAR EFDA
ENCODING 61402
SWIDTH 960 0
DWIDTH 8 0
BBX 6 7 1 0
BITMAP
78
84
B4
C4
A4
84
78
ENDCHAR
STARTCHAR EFDB
ENCODING 61403
SWIDTH 960 0
DWIDTH 8 0
BBX 6 7 1 0
BITMAP
78
84
AC
B4
B4
84
78
ENDCHAR
STARTCHAR EFDC
ENCODING 61404
SWIDTH 720 0
DWIDTH 6 0
BBX 2 8 1 -2
BITMAP
40
40
40
40
40
40
C0
40
ENDCHAR
STARTCHAR EFDD
ENCODING 61405
SWIDTH 720 0
DWIDTH 6 0
BBX 1 9 2 -2
BITMAP
80
80
80
80
80
80
80
80
80
ENDCHAR
STARTCHAR EFDE
ENCODING 61406
SWIDTH 720 0
DWIDTH 6 0
BBX 1 8 2 -2
BITMAP
80
80
80
80
80
80
80
80
ENDCHAR
STARTCHAR EFDF
ENCODING 61407
SWIDTH 720 0
DWIDTH 6 0
BBX 2 8 3 -2
BITMAP
80
80
80
80
C0
80
80
80
ENDCHAR
STARTCHAR EFE0
ENCODING 61408
SWIDTH 720 0
DWIDTH 6 0
BBX 1 8 2 -2
BITMAP
80
80
80
80
80
80
80
80
ENDCHAR
STARTCHAR EFE1
ENCODING 61409
SWIDTH 720 0
DWIDTH 6 0
BBX 1 8 3 -2
BITMAP
80
80
80
80
80
80
80
80
ENDCHAR
STARTCHAR EFE2
ENCODING 61410
SWIDTH 720 0
DWIDTH 6 0
BBX 2 8 1 -2
BITMAP
40
40
40
40
C0
40
40
40
ENDCHAR
STARTCHAR EFE3
ENCODING 61411
SWIDTH 720 0
DWIDTH 6 0
BBX 1 8 3 -2
BITMAP
80
80
80
80
80
80
80
80
ENDCHAR
STARTCHAR EFE4
ENCODING 61412
SWIDTH 720 0
DWIDTH 6 0
BBX 3 9 0 -2
BITMAP
20
20
20
20
20
20
20
20
E0
ENDCHAR
STARTCHAR EFE5
ENCODING 61413
SWIDTH 720 0
DWIDTH 6 0
BBX 3 9 0 -1
BITMAP
E0
20
20
20
20
20
20
20
20
ENDCHAR
STARTCHAR EFE6
ENCODING 61414
SWIDTH 720 0
DWIDTH 6 0
BBX 3 9 3 -2
BITMAP
80
80
80
80
80
80
80
80
E0
ENDCHAR
STARTCHAR EFE7
ENCODING 61415
SWIDTH 720 0
DWIDTH 6 0
BBX 3 9 3 -1
BITMAP
E0
80
80
80
80
80
80
80
80
ENDCHAR
STARTCHAR EFE8
ENCODING 61416
SWIDTH 720 0
DWIDTH 6 0
BBX 4 1 1 2
BITMAP
F0
ENDCHAR
STARTCHAR EFE9
ENCODING 61417
SWIDTH 720 0
DWIDTH 6 0
BBX 6 1 0 7
BITMAP
FC
ENDCHAR
STARTCHAR EFEA
ENCODING 61418
SWIDTH 720 0
DWIDTH 6 0
BBX 6 1 0 7
BITMAP
FC
ENDCHAR
STARTCHAR EFEB
ENCODING 61419
SWIDTH 720 0
DWIDTH 6 0
BBX 6 1 0 -2
BITMAP
FC
ENDCHAR
STARTCHAR EFEC
ENCODING 61420
SWIDTH 480 0
DWIDTH 4 0
BBX 4 4 0 0
BITMAP
70
40
80
70
ENDCHAR
STARTCHAR EFFA
ENCODING 61434
SWIDTH 960 0
DWIDTH 8 0
BBX 6 6 1 0
BITMAP
38
7C
FC
FC
7C
78
ENDCHAR
STARTCHAR EFFB
ENCODING 61435
SWIDTH 960 0
DWIDTH 8 0
BBX 6 6 1 0
BITMAP
FC
FC
FC
FC
FC
FC
ENDCHAR
STARTCHAR EFFC
ENCODING 61436
SWIDTH 960 0
DWIDTH 8 0
BBX 6 6 1 0
BITMAP
FC
84
84
84
84
FC
ENDCHAR
STARTCHAR EFFD
ENCODING 61437
SWIDTH 960 0
DWIDTH 8 0
BBX 6 6 1 0
BITMAP
78
84
84
84
84
78
ENDCHAR
STARTCHAR EFFE
ENCODING 61438
SWIDTH 720 0
DWIDTH 6 0
BBX 6 6 0 0
BITMAP
38
64
B4
98
90
70
ENDCHAR
STARTCHAR EFFF
ENCODING 61439
SWIDTH 480 0
DWIDTH 4 0
BBX 4 4 0 3
BITMAP
E0
B0
D0
F0
ENDCHAR
STARTCHAR FB00
ENCODING 64256
SWIDTH 600 0
DWIDTH 5 0
BBX 4 7 0 0
BITMAP
50
90
F0
90
90
90
90
ENDCHAR
STARTCHAR FB01
ENCODING 64257
SWIDTH 480 0
DWIDTH 4 0
BBX 4 7 0 0
BITMAP
50
80
D0
90
90
90
90
ENDCHAR
STARTCHAR FB02
ENCODING 64258
SWIDTH 480 0
DWIDTH 4 0
BBX 4 7 0 0
BITMAP
50
90
D0
90
90
90
90
ENDCHAR
STARTCHAR FB03
ENCODING 64259
SWIDTH 720 0
DWIDTH 6 0
BBX 6 7 0 0
BITMAP
54
90
F4
94
94
94
94
ENDCHAR
STARTCHAR FB04
ENCODING 64260
SWIDTH 720 0
DWIDTH 6 0
BBX 6 7 0 0
BITMAP
54
94
F4
94
94
94
94
ENDCHAR
ENDFONT
